<svg width="505" height="343" viewBox="0 0 505 343" fill="none" xmlns="http://www.w3.org/2000/svg">
<g filter="url(#filter0_ddd)">
<g filter="url(#filter1_ddd)">
<rect x="25.2656" y="9" width="453.37" height="291" rx="25" fill="url(#paint0_linear)" stroke="#FBAC18" stroke-width="2"/>
<mask id="mask0" mask-type="alpha" maskUnits="userSpaceOnUse" x="21" y="6" width="460" height="297">
<rect x="22" y="7" width="457.37" height="295" rx="27" fill="url(#paint1_linear)" stroke="#FFAC00" stroke-width="2"/>
</mask>
<g mask="url(#mask0)">
<path d="M326.196 261.009C326.196 302.018 292.952 335.262 251.943 335.262C210.934 335.262 177.689 302.018 177.689 261.009C177.689 239.387 186.931 219.924 201.679 206.354C214.903 194.186 232.555 186.755 251.943 186.755C292.952 186.755 326.196 220 326.196 261.009Z" fill="white" fill-opacity="0.05"/>
<path d="M326.196 261.009C326.196 302.018 292.952 335.262 251.943 335.262H466.243C425.234 335.262 391.99 302.018 391.99 261.009C391.99 255.77 392.532 250.659 393.564 245.727C390.067 246.232 386.491 246.493 382.854 246.493C346.813 246.493 316.769 220.815 310.019 186.755H261.583H251.943C292.952 186.755 326.196 220 326.196 261.009Z" fill="white" fill-opacity="0.05"/>
<path d="M310.019 186.755C309.089 182.061 308.601 177.208 308.601 172.24C308.601 165.716 309.443 159.389 311.023 153.36C304.818 164.492 286.243 186.755 261.583 186.755H310.019Z" fill="white" fill-opacity="0.05"/>
<path fill-rule="evenodd" clip-rule="evenodd" d="M466.243 335.262C507.252 335.262 540.497 302.018 540.497 261.009C540.497 220 507.252 186.755 466.243 186.755C462.606 186.755 459.031 187.017 455.534 187.522C449.204 217.776 424.462 241.264 393.564 245.727C392.532 250.659 391.99 255.77 391.99 261.009C391.99 302.018 425.234 335.262 466.243 335.262Z" fill="white" fill-opacity="0.05"/>
<path d="M455.534 187.522C449.204 217.776 424.462 241.264 393.564 245.727C399.893 215.473 424.636 191.985 455.534 187.522Z" fill="white" fill-opacity="0.05"/>
<path d="M457.108 172.24C457.108 131.231 423.863 97.9868 382.854 97.9868C348.369 97.9868 319.375 121.495 311.023 153.36C309.443 159.389 308.601 165.716 308.601 172.24C308.601 177.208 309.089 182.061 310.019 186.755C316.769 220.815 346.813 246.493 382.854 246.493C386.491 246.493 390.067 246.232 393.564 245.727C399.893 215.473 424.636 191.985 455.534 187.522C456.565 182.59 457.108 177.479 457.108 172.24Z" fill="white" fill-opacity="0.05"/>
</g>
</g>
</g>
<defs>
<filter id="filter0_ddd" x="0.265625" y="0" width="504.104" height="343" filterUnits="userSpaceOnUse" color-interpolation-filters="sRGB">
<feFlood flood-opacity="0" result="BackgroundImageFix"/>
<feColorMatrix in="SourceAlpha" type="matrix" values="0 0 0 0 0 0 0 0 0 0 0 0 0 0 0 0 0 0 127 0"/>
<feOffset/>
<feGaussianBlur stdDeviation="0.5"/>
<feColorMatrix type="matrix" values="0 0 0 0 0 0 0 0 0 0 0 0 0 0 0 0 0 0 0.04 0"/>
<feBlend mode="normal" in2="BackgroundImageFix" result="effect1_dropShadow"/>
<feColorMatrix in="SourceAlpha" type="matrix" values="0 0 0 0 0 0 0 0 0 0 0 0 0 0 0 0 0 0 127 0"/>
<feOffset dy="2"/>
<feGaussianBlur stdDeviation="3"/>
<feColorMatrix type="matrix" values="0 0 0 0 0 0 0 0 0 0 0 0 0 0 0 0 0 0 0.04 0"/>
<feBlend mode="normal" in2="effect1_dropShadow" result="effect2_dropShadow"/>
<feColorMatrix in="SourceAlpha" type="matrix" values="0 0 0 0 0 0 0 0 0 0 0 0 0 0 0 0 0 0 127 0"/>
<feOffset dy="16"/>
<feGaussianBlur stdDeviation="12"/>
<feColorMatrix type="matrix" values="0 0 0 0 0 0 0 0 0 0 0 0 0 0 0 0 0 0 0.06 0"/>
<feBlend mode="normal" in2="effect2_dropShadow" result="effect3_dropShadow"/>
<feBlend mode="normal" in="SourceGraphic" in2="effect3_dropShadow" result="shape"/>
</filter>
<filter id="filter1_ddd" x="0.265625" y="0" width="504.104" height="343" filterUnits="userSpaceOnUse" color-interpolation-filters="sRGB">
<feFlood flood-opacity="0" result="BackgroundImageFix"/>
<feColorMatrix in="SourceAlpha" type="matrix" values="0 0 0 0 0 0 0 0 0 0 0 0 0 0 0 0 0 0 127 0"/>
<feOffset/>
<feGaussianBlur stdDeviation="0.5"/>
<feColorMatrix type="matrix" values="0 0 0 0 0 0 0 0 0 0 0 0 0 0 0 0 0 0 0.04 0"/>
<feBlend mode="normal" in2="BackgroundImageFix" result="effect1_dropShadow"/>
<feColorMatrix in="SourceAlpha" type="matrix" values="0 0 0 0 0 0 0 0 0 0 0 0 0 0 0 0 0 0 127 0"/>
<feOffset dy="2"/>
<feGaussianBlur stdDeviation="3"/>
<feColorMatrix type="matrix" values="0 0 0 0 0 0 0 0 0 0 0 0 0 0 0 0 0 0 0.04 0"/>
<feBlend mode="normal" in2="effect1_dropShadow" result="effect2_dropShadow"/>
<feColorMatrix in="SourceAlpha" type="matrix" values="0 0 0 0 0 0 0 0 0 0 0 0 0 0 0 0 0 0 127 0"/>
<feOffset dy="16"/>
<feGaussianBlur stdDeviation="12"/>
<feColorMatrix type="matrix" values="0 0 0 0 0 0 0 0 0 0 0 0 0 0 0 0 0 0 0.06 0"/>
<feBlend mode="normal" in2="effect2_dropShadow" result="effect3_dropShadow"/>
<feBlend mode="normal" in="SourceGraphic" in2="effect3_dropShadow" result="shape"/>
</filter>
<linearGradient id="paint0_linear" x1="251.951" y1="8" x2="251.951" y2="301" gradientUnits="userSpaceOnUse">
<stop stop-color="#5438FF"/>
<stop offset="1" stop-color="#6C54FF"/>
</linearGradient>
<linearGradient id="paint1_linear" x1="250.685" y1="8" x2="250.685" y2="301" gradientUnits="userSpaceOnUse">
<stop stop-color="#197BBD"/>
<stop offset="1" stop-color="#3391D0"/>
</linearGradient>
</defs>
</svg>
