<svg width="21" height="19" viewBox="0 0 21 19" fill="none" xmlns="http://www.w3.org/2000/svg">
<path d="M3.32557 17.8364C3.29051 17.9757 3.28988 18.1206 3.32372 18.2602C3.35756 18.3997 3.42499 18.5304 3.52095 18.6424C3.61692 18.7543 3.73893 18.8446 3.87785 18.9066C4.01676 18.9685 4.16897 19.0005 4.32307 19C4.52516 19 4.72274 18.9445 4.89088 18.8404L10.4616 15.3923L16.0323 18.8404C16.2065 18.9478 16.412 19.0031 16.6212 18.9989C16.8303 18.9946 17.033 18.931 17.202 18.8166C17.3711 18.7022 17.4983 18.5424 17.5666 18.3589C17.635 18.1753 17.6411 17.9767 17.5843 17.7898L15.7131 11.7104L20.3538 7.8329C20.5024 7.70864 20.6085 7.54665 20.6591 7.36698C20.7096 7.1873 20.7023 6.99782 20.6381 6.82195C20.5738 6.64609 20.4555 6.49156 20.2977 6.37747C20.1399 6.26339 19.9495 6.19476 19.7501 6.18006L13.9175 5.7488L11.3936 0.561364C11.3132 0.394287 11.1825 0.25238 11.0171 0.152769C10.8518 0.0531579 10.659 0.000100575 10.4619 1.42846e-07C10.2648 -0.000100289 10.0719 0.0527605 9.90647 0.152203C9.74103 0.251645 9.61012 0.393419 9.52954 0.560414L7.00559 5.7488L1.173 6.17911C0.977033 6.19352 0.789689 6.26005 0.633379 6.37074C0.477069 6.48142 0.358413 6.63157 0.291606 6.80323C0.224799 6.97488 0.21267 7.16077 0.25667 7.33866C0.30067 7.51655 0.398935 7.67891 0.539711 7.8063L4.85098 11.7076L3.32557 17.8364ZM10.4616 3.2591L12.5507 7.55362L13.1523 7.59827H13.1533L17.217 7.89749L13.8705 10.694L13.8695 10.6959L13.3958 11.0911L13.5707 11.6582V11.661L14.8526 15.8264L10.4616 13.1087V3.2591Z" fill="white"/>
</svg>
