<svg width="14" height="13" viewBox="0 0 14 13" fill="none" xmlns="http://www.w3.org/2000/svg">
<path d="M2.11753 12.2038C2.09355 12.2992 2.09312 12.3983 2.11627 12.4938C2.13942 12.5893 2.18556 12.6787 2.25122 12.7553C2.31688 12.8319 2.40036 12.8937 2.49541 12.9361C2.59045 12.9785 2.6946 13.0003 2.80003 13C2.93831 13 3.07349 12.962 3.18854 12.8908L7.00006 10.5315L10.8116 12.8908C10.9308 12.9643 11.0714 13.0022 11.2145 12.9992C11.3576 12.9963 11.4963 12.9528 11.612 12.8745C11.7276 12.7962 11.8147 12.6869 11.8614 12.5613C11.9082 12.4357 11.9124 12.2999 11.8735 12.172L10.5932 8.01239L13.7684 5.35935C13.8701 5.27433 13.9427 5.1635 13.9773 5.04056C14.0119 4.91763 14.0069 4.78798 13.9629 4.66765C13.919 4.54732 13.838 4.44159 13.73 4.36353C13.6221 4.28548 13.4918 4.23852 13.3554 4.22846L9.36467 3.93339L7.63776 0.384091C7.58277 0.269775 7.49331 0.172681 7.38019 0.104526C7.26708 0.0363712 7.13513 6.88146e-05 7.00029 9.77364e-08C6.86544 -6.86191e-05 6.73345 0.0360993 6.62025 0.104139C6.50706 0.172178 6.41749 0.269182 6.36235 0.383441L4.63544 3.93339L0.644722 4.22781C0.51064 4.23767 0.382457 4.28319 0.275508 4.35892C0.16856 4.43465 0.0873739 4.53739 0.0416638 4.65484C-0.00404629 4.77229 -0.0123452 4.89948 0.0177599 5.02119C0.0478651 5.1429 0.1151 5.25399 0.21142 5.34115L3.16124 8.01044L2.11753 12.2038ZM7.00006 2.22991L8.42947 5.16827L8.84107 5.19882H8.84177L11.6222 5.40355L9.33247 7.31696L9.33177 7.31826L9.00767 7.58863L9.12737 7.97664V7.97859L10.0045 10.8286L7.00006 8.96909V2.22991Z" fill="#FFAC00"/>
</svg>
