<svg width="75" height="75" viewBox="0 0 75 75" fill="none" xmlns="http://www.w3.org/2000/svg">
<path d="M75 57.8671C75 56.2914 74.1485 54.9113 72.882 54.161C75.1459 51.3694 73.1628 47.1491 69.5376 47.1491H62.5296V45.0412C62.5296 42.6674 60.5982 40.7362 58.2245 40.7362H53.528C49.4011 40.7362 45.4141 42.2245 42.3018 44.9268C41.4221 45.6904 40.2688 46.111 39.0543 46.111L27.5077 46.1111C27.5793 45.9688 27.6205 45.8125 27.6272 45.654C27.8202 45.4852 27.9877 45.2859 28.1196 45.0573C28.499 44.293 29.0565 43.7816 29.0134 42.7753C29.3965 42.575 29.7294 42.2687 29.961 41.8676C30.3311 41.1162 30.8959 40.6013 30.8533 39.5866C31.2369 39.3863 31.5706 39.0798 31.8025 38.6779C32.2648 37.8234 32.5329 37.5607 32.6531 36.9472C33.0573 36.6909 33.0562 36.4319 34.2252 34.4819C34.853 33.3946 34.5226 32.0076 33.4611 31.3233L34.2069 30.0316L36.5259 31.3704C37.4689 31.9149 38.6728 31.5925 39.2172 30.6493C39.4917 30.222 39.5115 30.0276 39.6239 30.0924L47.0978 34.4075C47.6234 34.7109 48.2953 34.5307 48.5985 34.0054C48.9019 33.4799 48.7219 32.808 48.1964 32.5047L40.7227 28.1897C39.636 27.5618 38.248 27.9336 37.6203 29.0208L37.4279 29.3541L34.3542 27.5796C34.3542 27.5796 34.3542 27.5796 34.3541 27.5796C32.4587 26.4853 29.6871 24.8851 28.5309 24.2176L31.2451 19.5166C36.3495 22.4637 50.9402 30.8876 55.7578 33.6691L54.4915 35.8622C54.4252 35.9766 54.2782 36.016 54.1641 35.9501L52.6365 35.0681C52.1108 34.7646 51.439 34.9448 51.1358 35.4702C50.8324 35.9957 51.0125 36.6676 51.5379 36.971L53.0654 37.8529C54.2329 38.5272 55.7246 38.1206 56.3944 36.961L57.93 34.3011C58.3557 33.5634 58.148 32.6318 57.4778 32.1377C57.4868 32.1222 64.5956 19.798 65.2718 18.6382C66.0577 18.9815 66.9552 18.6686 67.3709 17.9488L68.6109 15.8012C69.068 15.0092 68.7955 13.9927 68.0036 13.5354L51.8484 4.20828C51.3226 3.90461 50.6508 4.08494 50.3477 4.61038C50.0443 5.13581 50.2244 5.80774 50.7498 6.11111L66.4389 15.1693L65.7375 16.3841C61.8341 14.1305 45.9236 4.94451 43.6148 3.61164L44.3162 2.39685L46.3097 3.54778C46.8352 3.85115 47.5071 3.67112 47.8104 3.14568C48.1138 2.62024 47.9338 1.94832 47.4083 1.64495L44.9484 0.224781C44.1529 -0.234301 43.1398 0.0391848 42.6825 0.831958L41.4428 2.97913C40.9841 3.77278 41.2556 4.78689 42.0498 5.24538L43.2957 5.96462L38.8074 13.7385L38.0565 13.3051C37.5315 13.0016 36.8593 13.1818 36.5558 13.7072L33.8111 18.4611L31.8775 17.3447C31.0853 16.8875 30.0688 17.1597 29.6115 17.952L26.5147 23.316C25.9701 24.2589 26.2926 25.4627 27.2357 26.0073L28.8996 26.968L28.1539 28.2597C27.0327 27.684 25.6654 28.088 25.0364 29.1774C23.9147 31.1989 23.706 31.2953 23.6873 31.7715C23.2162 32.1824 23.1227 32.5458 22.6138 33.3733C22.3866 33.7668 22.2817 34.2071 22.3009 34.6502C21.9182 34.8505 21.5849 35.1557 21.3533 35.5567C20.982 36.3108 20.4188 36.8223 20.4611 37.837C20.0678 38.0421 19.7389 38.3529 19.5117 38.7464C19.0406 39.6156 18.7803 39.8687 18.6602 40.4777C18.2591 40.7327 18.2839 40.949 17.089 42.9424C16.4621 44.0286 16.8018 45.409 17.8364 46.0898L17.8236 46.1117H1.09863C0.491895 46.1117 0 46.6036 0 47.2104V68.5238C0 69.1306 0.491895 69.6225 1.09863 69.6225L13.7486 69.6226C14.3553 69.6226 14.8472 69.1307 14.8472 68.524C14.8472 67.9172 14.3553 67.4254 13.7486 67.4254L2.19727 67.4252V48.309L17.1624 48.3087C17.202 48.3817 17.2471 48.4523 17.3039 48.5161C17.7642 49.0344 17.2975 49.8417 16.6198 49.7012C16.1562 49.6061 15.6838 49.8184 15.4474 50.2281C15.1412 50.9615 12.7181 53.7735 13.4168 58.2052C13.5126 58.8127 13.7776 59.3724 14.2226 59.8076L19.7468 65.2086C23.0377 68.5067 28.7032 66.3403 28.9638 61.7032C29.0429 60.296 28.565 58.9192 27.6604 57.8671C30.1919 54.9236 28.8828 50.3897 25.2371 49.2017C25.639 49.0137 25.991 48.7108 26.24 48.3086L39.0545 48.3084C40.7982 48.3084 42.4632 47.6968 43.7424 46.5862C46.4553 44.2307 49.9305 42.9336 53.5282 42.9336H58.2246C59.387 42.9336 60.3325 43.8792 60.3325 45.0414V55.8817C60.3325 57.044 59.387 57.9896 58.2246 57.9896C57.0623 57.9896 56.1167 57.044 56.1167 55.8817V48.7439C56.1167 48.1372 55.625 47.6453 55.0181 47.6453C54.4112 47.6453 53.9194 48.1372 53.9194 48.7439C53.9194 50.5167 52.4771 51.9588 50.7045 51.9588C48.9319 51.9588 47.4898 50.5165 47.4898 48.7439C47.4898 48.1372 46.998 47.6453 46.3912 47.6453C45.7843 47.6453 45.2925 48.1372 45.2925 48.7439C45.2925 51.7282 47.7204 54.1561 50.7045 54.1561C51.9075 54.1561 53.02 53.7616 53.9194 53.0952V55.8815C53.9194 59.9075 58.9925 61.7317 61.5546 58.6067C61.6903 59.3864 62.0361 60.0945 62.5318 60.6707C60.588 61.9364 60.0146 64.4653 61.1418 66.4216C58.1046 66.7968 56.4264 70.1516 57.9207 72.8007H53.5282C49.9305 72.8007 46.4553 71.5036 43.7424 69.148C42.4632 68.0374 40.7982 67.4258 39.0545 67.4258L18.8755 67.4254C18.2688 67.4254 17.7769 67.9172 17.7769 68.524C17.7769 69.1307 18.2688 69.6226 18.8755 69.6226L39.0545 69.6231C40.269 69.6231 41.4223 70.0436 42.3019 70.8071C45.4143 73.5096 49.4013 74.9979 53.5282 74.9979H66.5725C68.9462 74.9979 70.8776 73.0666 70.8776 70.6927C70.8776 69.9132 70.6685 69.1823 70.3047 68.5509C72.4291 68.2886 74.0793 66.4738 74.0793 64.2797C74.0793 63.2095 73.6859 62.23 73.0373 61.4762C74.2173 60.7079 75 59.3775 75 57.8671ZM43.3116 20.0725L47.7393 12.4035C49.6541 13.509 51.8461 14.7746 53.7611 15.8801L53.0177 17.1679L50.0068 15.4296C49.4811 15.1259 48.8093 15.3062 48.5061 15.8317C48.2027 16.3571 48.3828 17.029 48.9082 17.3324L51.919 19.0707C51.659 19.521 51.4355 19.9082 51.1755 20.3585L48.1646 18.6201C47.6388 18.3165 46.9671 18.4968 46.6639 19.0222C46.3605 19.5477 46.5406 20.2196 47.066 20.523L50.0769 22.2613L49.3333 23.549C47.4185 22.4437 45.2265 21.178 43.3116 20.0725ZM56.8329 21.9077L59.8437 23.646L59.1001 24.9338L56.0892 23.1954C55.5634 22.8919 54.8917 23.0721 54.5884 23.5975C54.2851 24.123 54.4651 24.7949 54.9905 25.0983L58.0015 26.8366L57.258 28.1243C55.3431 27.0188 53.151 25.7532 51.2361 24.6475C52.6866 22.1352 54.4066 19.1561 55.6638 16.9785C56.5173 17.4713 60.8295 19.9609 61.6856 20.4551L60.942 21.7429L57.9312 20.0046C57.4055 19.701 56.7337 19.8812 56.4305 20.4067C56.1272 20.9325 56.3074 21.6043 56.8329 21.9077ZM49.559 27.5529L50.1376 26.5507C52.0522 27.656 54.2449 28.9219 56.1595 30.0273L55.5809 31.0294C54.8817 30.626 50.0367 27.8287 49.559 27.5529ZM63.3631 17.5504L62.7845 18.5525L56.7627 15.0758C56.7712 15.0612 57.3642 14.0339 57.3413 14.0736C58.932 14.9922 60.5465 15.9242 63.3631 17.5504ZM55.4383 12.9749L54.8597 13.9772C52.9528 12.8762 50.745 11.6015 48.838 10.5005L49.4167 9.49841C50.2756 9.99426 53.2301 11.7001 55.4383 12.9749ZM42.213 21.9754L48.2347 25.452L47.6561 26.4543L41.6344 22.9776L42.213 21.9754ZM45.1986 7.06311L47.5138 8.39978C47.1841 8.97663 48.1276 7.3366 39.7315 21.879L39.1187 21.5252L41.8632 16.7712C42.1666 16.2458 41.9865 15.5738 41.4611 15.2705L40.7104 14.837L45.1986 7.06311ZM37.9096 15.7571L39.411 16.624L37.2157 20.4266L35.7141 19.5597L37.9096 15.7571ZM21.636 39.7854L26.7385 42.7313C26.8163 42.7763 26.8427 42.875 26.7979 42.9525L26.2167 43.959C26.1721 44.0365 26.0733 44.063 25.9957 44.0182L20.8931 41.0721C20.8147 41.027 20.7894 40.9278 20.8339 40.851L21.4148 39.8447C21.4583 39.7694 21.5559 39.7391 21.636 39.7854ZM22.6753 37.6613L23.2563 36.655C23.3007 36.5781 23.3993 36.5506 23.4775 36.5957L28.58 39.5416C28.6572 39.5863 28.6838 39.6855 28.6392 39.7628L28.0582 40.769C28.0135 40.8465 27.9145 40.8729 27.837 40.8283L22.7345 37.8824C22.6573 37.8379 22.6308 37.7385 22.6753 37.6613ZM24.5169 34.4716L25.098 33.4653C25.1424 33.3884 25.2407 33.3612 25.3188 33.406L30.4217 36.3522C30.4991 36.3969 30.5256 36.4961 30.4809 36.5734L29.9 37.5798C29.8554 37.6571 29.7561 37.6836 29.6788 37.6389L24.5763 34.693C24.4989 34.6482 24.4723 34.549 24.5169 34.4716ZM19.0518 44.2618C18.9744 44.2171 18.9478 44.1179 18.9924 44.0406L19.6544 42.8941C27.2019 47.2515 22.1499 44.3349 25.0374 46.0019L24.3754 47.1484C24.3308 47.2259 24.2316 47.2524 24.1542 47.2077C17.8162 43.5484 25.5567 48.0175 19.0518 44.2618ZM31.5614 30.2199L31.5277 30.2005L30.0599 29.353L30.8027 28.0663L32.3043 28.9332L31.5614 30.2199ZM26.9395 30.2758C26.9842 30.1984 27.0828 30.1713 27.1607 30.2164C28.9463 31.2474 30.4777 32.1314 32.2632 33.1624C32.3407 33.2072 32.3673 33.3058 32.3225 33.3836L31.6605 34.5301C25.9975 31.2606 27.4932 32.1241 26.2775 31.4223L26.9395 30.2758ZM17.0174 51.903C19.0371 51.7296 20.2676 49.5922 19.4096 47.7595L19.7361 47.1941L21.2726 48.0812L18.0771 53.6161C17.4457 54.7095 16.5561 55.632 15.5001 56.3054C15.6083 53.8398 16.79 52.3927 17.0174 51.903ZM25.5879 56.8297C24.9262 57.3667 24.9299 58.3706 25.5879 58.9045C26.3978 59.5618 26.8288 60.5371 26.77 61.58C26.6152 64.3379 23.2458 65.6103 21.299 63.6534C21.2955 63.6499 21.2918 63.6462 21.2881 63.6427L16.0548 58.5261C17.6817 57.6472 19.0497 56.3259 19.9799 54.7149L21.6918 51.7498C22.3165 51.2957 23.0785 51.0812 23.8613 51.149C26.6824 51.3947 27.8411 55.0013 25.5879 56.8297ZM65.7948 55.7593H70.6948C71.8572 55.7593 72.8027 56.7049 72.8027 57.8672C72.8027 59.0295 71.8572 59.975 70.6948 59.975H65.7948C64.6324 59.975 63.6869 59.0295 63.6869 57.8671C63.687 56.7049 64.6326 55.7593 65.7948 55.7593ZM69.5376 49.3464C70.7 49.3464 71.6455 50.292 71.6455 51.4542C71.6455 52.6165 70.7 53.5621 69.5376 53.5621H64.6374C63.4752 53.5621 62.5296 52.6165 62.5296 51.4542C62.5296 50.292 63.4752 49.3464 64.6374 49.3464H69.5376ZM66.5725 72.8007H61.6724C60.5101 72.8007 59.5645 71.8552 59.5645 70.6928C59.5645 69.5305 60.5101 68.5849 61.6724 68.5849H66.5725C67.7348 68.5849 68.6804 69.5305 68.6804 70.6928C68.6804 71.8552 67.7347 72.8007 66.5725 72.8007ZM69.7742 66.3878H64.874C63.7116 66.3878 62.7661 65.4422 62.7661 64.28C62.7661 63.1177 63.7116 62.1721 64.874 62.1721H69.7742C70.9364 62.1721 71.8819 63.1177 71.8819 64.28C71.8819 65.4422 70.9364 66.3878 69.7742 66.3878Z" fill="#FFAC00"/>
</svg>
