<svg width="40" height="40" viewBox="0 0 40 40" fill="none" xmlns="http://www.w3.org/2000/svg">
<g clip-path="url(#clip0)">
<path d="M3.0709 3.07096C7.16542 -1.02357 13.9034 -1.02341 17.9979 3.07096L24.1464 9.21947C25.3363 10.4094 26.1814 11.8153 26.6832 13.3118C28.2197 13.8286 29.6258 14.6988 30.7806 15.8536L36.9291 22.0021C41.0236 26.0966 41.0236 32.8346 36.9291 36.9291C32.8348 41.0234 26.0968 41.0238 22.0021 36.9291L15.8536 30.7806C14.6637 29.5908 13.8186 28.185 13.3168 26.6883C11.7803 26.1715 10.3742 25.3013 9.2194 24.1465L3.0709 17.998C-1.0237 13.9035 -1.0237 7.16557 3.0709 3.07096ZM26.2073 21.2318C25.7048 22.2863 25.0184 23.2745 24.1464 24.1465C23.2967 24.9962 22.3077 25.6927 21.2319 26.2077L26.9777 31.9535C28.3294 33.3052 30.5861 33.3052 31.9378 31.9535C33.3105 30.5807 33.3103 28.3505 31.9378 26.9779L26.2073 21.2318ZM17.512 29.1223L23.6605 35.2706C26.8432 38.4531 32.0929 38.448 35.2704 35.2706C38.4504 32.0906 38.4504 26.8407 35.2704 23.6608L29.1219 17.5123C28.5559 16.9463 27.9126 16.4686 27.2157 16.0918C27.2655 16.9888 27.2019 17.8909 27.0245 18.7745C27.177 18.8991 27.3237 19.0312 27.4633 19.1709L33.5961 25.3194C35.8854 27.6087 35.8856 31.3228 33.5961 33.6122C31.3276 35.8807 27.5874 35.8807 25.319 33.6122L19.1705 27.4638C16.9042 25.1975 16.8676 21.4738 19.1705 19.1709C20.0898 18.2516 20.392 16.9459 20.0791 15.7717C19.1262 16.1813 18.2516 16.7726 17.5119 17.5124C14.3113 20.7132 14.3113 25.9213 17.512 29.1223ZM13.7926 18.7684C14.2951 17.7138 14.9816 16.7257 15.8535 15.8537C16.7032 15.004 17.6922 14.3074 18.7681 13.7925L13.0222 8.04666C11.6705 6.69494 9.41385 6.69494 8.06214 8.04666C6.68933 9.41947 6.67393 11.6498 8.04651 13.0223L13.7926 18.7684ZM4.72941 16.3395L10.8779 22.488C11.4439 23.054 12.0873 23.5316 12.7842 23.9084C12.7343 23.0114 12.798 22.1094 12.9753 21.2257C12.8229 21.1012 12.6762 20.9691 12.5366 20.8294L6.38808 14.6809C4.11956 12.4124 4.11956 8.65658 6.38808 6.38807C8.65651 4.11963 12.4124 4.11963 14.6808 6.38807L20.8293 12.5366C23.0954 14.8027 23.1323 18.5263 20.8293 20.8294C19.9099 21.7488 19.6077 23.0544 19.9207 24.2287C20.8736 23.819 21.7481 23.2277 22.4879 22.488C25.6887 19.2871 25.6887 14.0789 22.4879 10.8781L16.3394 4.72963C13.1593 1.54971 7.90956 1.54963 4.72948 4.72963C1.54941 7.90963 1.54942 13.1595 4.72941 16.3395Z" fill="#161616"/>
<path d="M5.90243 32.4398L7.56101 30.7813C8.01898 30.3234 8.76155 30.3233 9.21951 30.7813C9.67748 31.2394 9.67748 31.9819 9.21951 32.4398L7.56093 34.0983C7.10297 34.5563 6.36039 34.5563 5.90243 34.0983C5.44438 33.6404 5.44438 32.8979 5.90243 32.4398Z" fill="#161616"/>
<path d="M30.7803 7.56009L32.4389 5.90158C32.8969 5.44361 33.6395 5.44361 34.0974 5.90158C34.5554 6.35963 34.5554 7.10212 34.0974 7.56009L32.4389 9.2186C31.9809 9.67665 31.2383 9.67665 30.7803 9.2186C30.3223 8.76063 30.3223 8.01814 30.7803 7.56009Z" fill="#161616"/>
<path d="M1.57077 23.7239L3.8364 23.1169C4.46117 22.9493 5.10515 23.3205 5.27273 23.9461C5.44039 24.5717 5.06906 25.2148 4.44343 25.3824L2.1778 25.9895C1.55233 26.1571 0.909123 25.7859 0.741467 25.1602C0.57381 24.5347 0.945141 23.8917 1.57077 23.7239Z" fill="#161616"/>
<path d="M35.5562 14.6173L37.8218 14.0103C38.4465 13.8428 39.0905 14.2139 39.2581 14.8396C39.4257 15.4651 39.0544 16.1083 38.4287 16.2758C35.9415 16.9423 36.0643 16.9231 35.8589 16.9231C35.3412 16.9231 34.8672 16.5776 34.7269 16.0536C34.5592 15.428 34.9305 14.7849 35.5562 14.6173Z" fill="#161616"/>
<path d="M14.0111 37.8205L14.6182 35.5548C14.7859 34.9292 15.4291 34.5578 16.0545 34.7256C16.6801 34.8933 17.0515 35.5363 16.8838 36.1619L16.2767 38.4276C16.109 39.0534 15.4656 39.4245 14.8404 39.2568C14.2147 39.0892 13.8435 38.4462 14.0111 37.8205Z" fill="#161616"/>
<path d="M23.1161 3.83556L23.7232 1.56994C23.8909 0.944314 24.5337 0.573143 25.1596 0.740642C25.7852 0.908298 26.1564 1.55134 25.9888 2.17697L25.3817 4.44267C25.2139 5.06845 24.5708 5.43962 23.9453 5.27188C23.3196 5.10423 22.9485 4.46118 23.1161 3.83556Z" fill="#161616"/>
</g>
<defs>
<clipPath id="clip0">
<rect width="40" height="40" fill="white" transform="matrix(-1 0 0 1 40 0)"/>
</clipPath>
</defs>
</svg>
