<svg width="43" height="44" viewBox="0 0 43 44" fill="none" xmlns="http://www.w3.org/2000/svg">
<path d="M21.5 4.41797C15.5617 4.41797 10.75 9.32177 10.75 15.396C10.75 25.8988 21.5 39.596 21.5 39.596C21.5 39.596 32.25 25.8966 32.25 15.396C32.25 9.32397 27.4383 4.41797 21.5 4.41797ZM21.5 21.4702C19.9604 21.4702 18.4839 20.8444 17.3952 19.7304C16.3066 18.6164 15.695 17.1056 15.695 15.5302C15.695 13.9548 16.3066 12.4439 17.3952 11.33C18.4839 10.216 19.9604 9.59017 21.5 9.59017C23.0396 9.59017 24.5161 10.216 25.6048 11.33C26.6934 12.4439 27.305 13.9548 27.305 15.5302C27.305 17.1056 26.6934 18.6164 25.6048 19.7304C24.5161 20.8444 23.0396 21.4702 21.5 21.4702Z" fill="white"/>
</svg>
