<svg width="28" height="24" viewBox="0 0 28 24" fill="none" xmlns="http://www.w3.org/2000/svg">
<path d="M0 7.01911V18.4835C0 19.709 0.486841 20.8844 1.35342 21.751C2.22001 22.6175 3.39534 23.1044 4.62088 23.1044H23.1044C24.3299 23.1044 25.5052 22.6175 26.3718 21.751C27.2384 20.8844 27.7253 19.709 27.7253 18.4835V4.62088C27.7253 3.39534 27.2384 2.22001 26.3718 1.35342C25.5052 0.486841 24.3299 0 23.1044 0H4.62088C3.39534 0 2.22001 0.486841 1.35342 1.35342C0.486841 2.22001 0 3.39534 0 4.62088V7.01911ZM4.62088 2.31044H23.1044C23.7171 2.31044 24.3048 2.55386 24.7381 2.98715C25.1714 3.42044 25.4148 4.00811 25.4148 4.62088V6.3306L13.8626 12.5503L2.31044 6.3306V4.62088C2.31044 4.00811 2.55386 3.42044 2.98715 2.98715C3.42044 2.55386 4.00811 2.31044 4.62088 2.31044ZM2.31044 8.95526L13.3151 14.8792C13.4833 14.9698 13.6715 15.0172 13.8626 15.0172C14.0538 15.0172 14.2419 14.9698 14.4102 14.8792L25.4148 8.95526V18.4835C25.4148 19.0963 25.1714 19.6839 24.7381 20.1172C24.3048 20.5505 23.7171 20.7939 23.1044 20.7939H4.62088C4.00811 20.7939 3.42044 20.5505 2.98715 20.1172C2.55386 19.6839 2.31044 19.0963 2.31044 18.4835V8.95526Z" fill="#FFAC00"/>
</svg>
