<svg width="57" height="35" viewBox="0 0 57 35" fill="none" xmlns="http://www.w3.org/2000/svg">
<path fill-rule="evenodd" clip-rule="evenodd" d="M39.5968 34.8237C49.0456 34.8237 56.7053 27.075 56.7053 17.5166C56.7053 7.95813 49.0456 0.209473 39.5968 0.209473C35.3614 0.209473 31.4854 1.7664 28.4977 4.34537C25.5101 1.76687 21.6345 0.210254 17.3995 0.210254C7.95076 0.210254 0.291016 7.95891 0.291016 17.5174C0.291016 27.0758 7.95076 34.8245 17.3995 34.8245C21.6349 34.8245 25.5109 33.2676 28.4986 30.6886C31.4862 33.2671 35.3618 34.8237 39.5968 34.8237Z" fill="#ED0006"/>
<path fill-rule="evenodd" clip-rule="evenodd" d="M28.498 30.6888C32.1765 27.5144 34.5089 22.7909 34.5089 17.5163C34.5089 12.2418 32.1765 7.51831 28.498 4.34387C31.4856 1.76565 35.361 0.209229 39.5957 0.209229C49.0445 0.209229 56.7042 7.95789 56.7042 17.5163C56.7042 27.0748 49.0445 34.8235 39.5957 34.8235C35.361 34.8235 31.4856 33.267 28.498 30.6888Z" fill="#F9A000"/>
<path fill-rule="evenodd" clip-rule="evenodd" d="M28.4984 30.6882C32.1764 27.5138 34.5086 22.7906 34.5086 17.5163C34.5086 12.2421 32.1764 7.51892 28.4984 4.34448C24.8204 7.51892 22.4883 12.2421 22.4883 17.5163C22.4883 22.7906 24.8204 27.5138 28.4984 30.6882Z" fill="#FF5E00"/>
</svg>
