<svg width="106" height="103" viewBox="0 0 106 103" fill="none" xmlns="http://www.w3.org/2000/svg">
<circle r="32.2029" transform="matrix(-1 0 0 1 32.2029 32.2029)" fill="#FBAC18" fill-opacity="0.4"/>
<path d="M16 83.5448C16 72.2216 16 60.8983 16 49.5751C46.0078 49.5751 75.9922 49.5751 106 49.5751C106 60.9692 106 72.2452 106 83.4976C95.9426 83.4976 85.9556 83.4976 75.8512 83.4976C75.8512 74.0655 75.8512 64.6806 75.8512 55.2958C65.9347 55.2958 56.1123 55.2958 46.1958 55.2958C46.1958 64.7279 46.1958 74.1127 46.1958 83.5448C36.0444 83.5448 26.0339 83.5448 16 83.5448Z" fill="#5438FF"/>
<path d="M16 44.2562C16 35.155 16 26.0775 16 17C16.3995 17.0236 16.8225 17.0709 17.2219 17.0709C46.4073 17.0709 75.5927 17.0709 104.802 17.0709C105.201 17.0709 105.601 17.0709 106 17.0709C106 26.1957 106 35.2023 106 44.2325C75.9452 44.2562 45.9843 44.2562 16 44.2562ZM85.4386 30.0962C85.4386 33.2639 87.953 35.5805 91.3368 35.5569C94.7206 35.5333 97.2115 33.193 97.188 30.0489C97.1645 26.8576 94.6971 24.5882 91.2898 24.6119C87.859 24.6119 85.4151 26.9049 85.4386 30.0962ZM77.5666 24.6119C74.8642 24.6119 72.6789 26.0302 71.9269 28.3233C70.7285 31.9164 73.2193 35.3441 77.1436 35.5805C79.9635 35.746 82.4073 34.2095 83.1593 31.7746C84.3342 28.0396 81.6553 24.6119 77.5666 24.6119ZM34.9399 35.3205C36.0444 35.3205 37.0313 35.3441 37.9948 35.2969C38.2063 35.2969 38.5587 35.0841 38.5822 34.9186C38.7937 33.3821 39.8512 33.3348 41.0261 33.453C41.3786 33.4766 41.7311 33.5003 42.0836 33.453C42.8825 33.3348 43.329 33.6185 43.517 34.4458C43.5875 34.7532 43.893 35.2496 44.1279 35.2732C45.1854 35.3678 46.2663 35.3205 47.4413 35.3205C47.2533 34.895 47.1593 34.6113 47.0418 34.3513C46.0078 31.9874 44.9974 29.5998 43.9634 27.2358C43.611 26.4321 43.3995 25.3447 42.7885 24.9428C42.154 24.541 41.0731 24.8719 40.2037 24.801C39.6397 24.7773 39.3812 24.9665 39.1697 25.4865C37.8773 28.536 36.5379 31.5855 35.2219 34.635C35.1044 34.8004 35.0574 34.9896 34.9399 35.3205ZM31.4856 35.2732C31.4856 32.6965 31.4856 30.1671 31.4856 27.5668C32.5431 27.5668 33.483 27.5668 34.423 27.5668C34.423 26.5976 34.423 25.7466 34.423 24.8955C31.2272 24.8955 28.1018 24.8955 24.953 24.8955C24.953 25.8175 24.953 26.6921 24.953 27.6377C25.9869 27.6377 26.9269 27.6377 27.9843 27.6377C27.9843 30.238 27.9843 32.7675 27.9843 35.2732C29.1828 35.2732 30.2872 35.2732 31.4856 35.2732ZM57.3812 24.8955C54.1619 24.8955 51.0131 24.8955 47.8642 24.8955C47.8642 25.8175 47.8642 26.6449 47.8642 27.5904C48.8512 27.5904 49.8146 27.5904 50.8721 27.5904C50.8721 30.2144 50.8721 32.7202 50.8721 35.2732C52.0705 35.2732 53.1749 35.2732 54.3734 35.2732C54.3734 32.6965 54.3734 30.1908 54.3734 27.5668C55.4308 27.5668 56.3708 27.5668 57.3812 27.5668C57.3812 26.6449 57.3812 25.8175 57.3812 24.8955ZM67.1802 35.2732C67.1802 32.6965 67.1802 30.1671 67.1802 27.5668C68.2376 27.5668 69.1775 27.5668 70.1175 27.5668C70.1175 26.5976 70.1175 25.7466 70.1175 24.8955C66.9217 24.8955 63.7963 24.8955 60.6475 24.8955C60.6475 25.8175 60.6475 26.6921 60.6475 27.6377C61.6815 27.6377 62.6214 27.6377 63.6788 27.6377C63.6788 30.238 63.6788 32.7675 63.6788 35.2732C64.8773 35.2732 65.9817 35.2732 67.1802 35.2732Z" fill="#5438FF"/>
<path d="M16 88.84C26.0104 88.84 36.0444 88.84 46.1253 88.84C46.1253 93.5206 46.1253 98.1539 46.1253 102.929C45.7258 102.929 45.3734 102.929 44.9974 102.929C35.7154 102.929 26.4099 102.929 17.1279 102.929C16.752 102.929 16.376 102.976 16 103C16 98.2721 16 93.5678 16 88.84Z" fill="#5438FF"/>
<path d="M70.5167 102.882C64.1486 102.882 57.8509 102.882 51.5298 102.882C51.5298 88.7691 51.5298 74.7273 51.5298 60.6146C57.8744 60.6146 64.1721 60.6146 70.5402 60.6146C70.5402 65.8862 70.5402 71.1105 70.5402 76.4294C69.1303 76.4294 67.7674 76.4294 66.334 76.4294C66.334 78.2259 66.334 79.9516 66.334 81.7482C67.7204 81.7482 69.0833 81.7482 70.5167 81.7482C70.5167 88.8164 70.5167 95.8136 70.5167 102.882Z" fill="#5438FF"/>
<path d="M106 102.882C95.9663 102.882 85.9793 102.882 75.9219 102.882C75.9219 98.2012 75.9219 93.5679 75.9219 88.8873C85.9323 88.8873 95.9193 88.8873 106 88.8873C106 93.5206 106 98.154 106 102.882Z" fill="#5438FF"/>
<path d="M93.6161 30.0489C93.6161 31.6091 92.6526 32.6965 91.2662 32.6729C89.9268 32.6492 88.9868 31.5618 88.9868 30.0489C88.9868 28.4887 89.9503 27.4013 91.3367 27.4249C92.6996 27.4722 93.6161 28.536 93.6161 30.0489Z" fill="#5438FF"/>
<path d="M75.24 29.978C75.2635 28.4651 76.2505 27.425 77.6134 27.4723C78.9998 27.5195 79.9163 28.6069 79.8693 30.1908C79.8458 31.7037 78.8353 32.7438 77.4959 32.7202C76.1095 32.6493 75.193 31.5382 75.24 29.978Z" fill="#5438FF"/>
<path d="M41.1198 28.3232C41.4957 29.2925 41.7777 30.0253 42.1067 30.8763C41.4252 30.8763 40.8378 30.8763 40.1328 30.8763C40.4618 30.0962 40.7438 29.3161 41.1198 28.3232Z" fill="#5438FF"/>
</svg>
