<svg width="102" height="101" viewBox="0 0 102 101" fill="none" xmlns="http://www.w3.org/2000/svg">
<circle r="32.2029" transform="matrix(-1 0 0 1 32.2024 32.2029)" fill="#FBAC18" fill-opacity="0.4"/>
<path d="M26.75 15C23.8989 15 21.1646 16.1326 19.1486 18.1486C17.1326 20.1646 16 22.8989 16 25.75V90.25C16 93.1011 17.1326 95.8354 19.1486 97.8514C21.1646 99.8674 23.8989 101 26.75 101H91.25C94.1011 101 96.8354 99.8674 98.8514 97.8514C100.867 95.8354 102 93.1011 102 90.25V25.75C102 22.8989 100.867 20.1646 98.8514 18.1486C96.8354 16.1326 94.1011 15 91.25 15H26.75ZM53.1711 42.6156L43.6156 52.1711C42.9437 52.8422 42.0329 53.2191 41.0833 53.2191C40.1337 53.2191 39.223 52.8422 38.5511 52.1711L33.7733 47.3933C33.1404 46.7141 32.7958 45.8156 32.8122 44.8873C32.8285 43.959 33.2046 43.0732 33.8611 42.4167C34.5177 41.7602 35.4034 41.3841 36.3317 41.3677C37.2601 41.3513 38.1585 41.6959 38.8378 42.3289L41.0833 44.5744L48.1067 37.5511C48.4347 37.1991 48.8303 36.9167 49.2699 36.7208C49.7094 36.525 50.1839 36.4197 50.6651 36.4112C51.1462 36.4027 51.6241 36.4912 52.0703 36.6714C52.5165 36.8516 52.9218 37.1199 53.2621 37.4601C53.6023 37.8004 53.8706 38.2057 54.0508 38.6519C54.231 39.0981 54.3195 39.576 54.3111 40.0572C54.3026 40.5383 54.1972 41.0128 54.0014 41.4523C53.8055 41.8919 53.5232 42.2875 53.1711 42.6156ZM81.6944 41.2778C82.6448 41.2778 83.5562 41.6553 84.2282 42.3273C84.9003 42.9993 85.2778 43.9108 85.2778 44.8611C85.2778 45.8115 84.9003 46.7229 84.2282 47.3949C83.5562 48.0669 82.6448 48.4444 81.6944 48.4444H64.9722C64.0219 48.4444 63.1104 48.0669 62.4384 47.3949C61.7664 46.7229 61.3889 45.8115 61.3889 44.8611C61.3889 43.9108 61.7664 42.9993 62.4384 42.3273C63.1104 41.6553 64.0219 41.2778 64.9722 41.2778H81.6944ZM61.3889 71.1389C61.3889 70.1885 61.7664 69.2771 62.4384 68.6051C63.1104 67.9331 64.0219 67.5556 64.9722 67.5556H81.6944C82.6448 67.5556 83.5562 67.9331 84.2282 68.6051C84.9003 69.2771 85.2778 70.1885 85.2778 71.1389C85.2778 72.0892 84.9003 73.0007 84.2282 73.6727C83.5562 74.3447 82.6448 74.7222 81.6944 74.7222H64.9722C64.0219 74.7222 63.1104 74.3447 62.4384 73.6727C61.7664 73.0007 61.3889 72.0892 61.3889 71.1389ZM53.1711 63.8289C53.8422 64.5008 54.2191 65.4115 54.2191 66.3611C54.2191 67.3107 53.8422 68.2215 53.1711 68.8933L43.6156 78.4489C42.9437 79.1199 42.0329 79.4968 41.0833 79.4968C40.1337 79.4968 39.223 79.1199 38.5511 78.4489L33.7733 73.6711C33.4213 73.3431 33.1389 72.9475 32.943 72.5079C32.7472 72.0684 32.6419 71.5939 32.6334 71.1127C32.6249 70.6316 32.7134 70.1537 32.8936 69.7075C33.0739 69.2613 33.3421 68.856 33.6824 68.5157C34.0226 68.1754 34.428 67.9072 34.8741 67.727C35.3203 67.5467 35.7983 67.4582 36.2794 67.4667C36.7605 67.4752 37.235 67.5805 37.6746 67.7764C38.1141 67.9722 38.5097 68.2546 38.8378 68.6067L41.0833 70.8522L48.1067 63.8289C48.7785 63.1578 49.6893 62.7809 50.6389 62.7809C51.5885 62.7809 52.4992 63.1578 53.1711 63.8289Z" fill="#5438FF"/>
</svg>
