<svg width="82" height="103" viewBox="0 0 82 103" fill="none" xmlns="http://www.w3.org/2000/svg">
<circle r="32.2029" transform="matrix(-1 0 0 1 32.2029 32.2029)" fill="#FBAC18" fill-opacity="0.4"/>
<path d="M79.9554 103C59.3261 103 38.6968 103 18.0446 103C16.5284 102.434 16 101.323 16 99.7602C16.023 72.9125 16.023 46.0875 16 19.2398C16 17.6766 16.5284 16.5664 18.0446 16C32.0808 16 46.1399 16 60.1761 16C60.1991 16.3398 60.2221 16.6797 60.2221 17.0195C60.2221 22.7969 60.2221 28.5742 60.2221 34.3289C60.2221 36.5492 61.1639 37.4555 63.4152 37.4555C69.2503 37.4555 75.1083 37.4555 80.9433 37.4555C81.2649 37.4555 81.6095 37.4555 81.977 37.4555C81.977 37.9086 81.977 38.2258 81.977 38.543C81.977 58.9562 81.977 79.3469 82 99.7602C82 101.323 81.4716 102.434 79.9554 103ZM34.0104 55.218C34.0104 55.7391 34.0104 56.1922 34.0104 56.6453C34.0334 58.1859 35.0902 59.2961 36.5374 59.3187C37.9617 59.3414 39.0874 58.2313 39.1563 56.7133C39.1793 56.2375 39.1563 55.7617 39.1563 55.2406C39.432 55.1727 39.6617 55.1273 39.8684 55.082C44.1643 54.3344 46.7832 50.3922 45.7953 46.2008C44.9683 42.7344 42.3035 40.6727 38.4901 40.582C37.2036 40.5594 35.9172 40.6047 34.6307 40.5594C33.0686 40.5141 32.1267 39.4719 32.2645 38.0445C32.4024 36.8891 33.2983 36.1187 34.6766 36.0961C36.6293 36.0734 38.582 36.1187 40.5117 36.0734C42.1657 36.0508 43.2454 35.0312 43.2454 33.5359C43.2454 32.0633 42.1427 31.0437 40.5117 30.9758C40.0752 30.9531 39.6157 30.9758 39.1103 30.9758C39.1103 30.2961 39.1563 29.7523 39.1103 29.2313C38.9725 27.9172 37.9617 26.9656 36.6753 26.875C35.5496 26.807 34.378 27.6 34.0794 28.7102C33.9645 29.1406 33.9415 29.6164 33.9875 30.0469C34.0334 30.7266 33.8726 30.9984 33.1145 31.1344C29.3011 31.8141 26.9579 34.8953 27.1417 38.8602C27.3254 42.4398 30.0592 45.2266 33.8037 45.5437C35.3658 45.6797 36.9509 45.6117 38.536 45.6344C39.5468 45.657 40.3049 46.0875 40.6954 47.0164C41.3387 48.5344 40.236 50.0523 38.4671 50.075C36.4685 50.0977 34.4469 50.075 32.4483 50.0977C30.9092 50.1203 29.8754 51.1398 29.8524 52.5898C29.8294 54.0852 30.8632 55.1273 32.4253 55.1953C32.9307 55.2406 33.4132 55.218 34.0104 55.218ZM40.7644 70.2164C44.371 70.2164 47.9777 70.2164 51.5844 70.2164C52.8938 70.2164 53.7668 69.65 54.1573 68.6078C54.8465 66.7953 53.583 65.1188 51.4695 65.1188C44.3481 65.1188 37.2036 65.1188 30.0821 65.1188C28.2673 65.1188 27.0957 66.1383 27.1187 67.7016C27.1187 69.2422 28.2903 70.2164 30.1281 70.2164C33.6659 70.2391 37.2036 70.2164 40.7644 70.2164ZM40.7184 87.0047C37.0658 87.0047 33.3902 86.982 29.7376 87.0047C28.0376 87.0047 26.866 88.3641 27.1417 89.9727C27.3484 91.2641 28.4281 92.1023 29.9213 92.1023C34.1483 92.1023 38.3982 92.1023 42.6251 92.1023C45.5426 92.1023 48.4601 92.1023 51.3777 92.1023C52.5493 92.1023 53.5371 91.7625 54.0654 90.6297C54.8924 88.8852 53.6979 87.0273 51.6993 87.0047C48.0466 86.982 44.394 87.0047 40.7184 87.0047ZM40.6725 81.1594C44.1413 81.1594 47.6102 81.1594 51.079 81.1594C53.1695 81.1594 54.3181 80.2305 54.3181 78.5992C54.3181 76.968 53.1465 76.0617 51.056 76.0617C44.1183 76.0617 37.1806 76.0617 30.243 76.0617C29.8984 76.0617 29.5538 76.0617 29.2092 76.1297C27.8538 76.3562 26.9579 77.5344 27.0957 78.8938C27.2336 80.2758 28.3133 81.1594 29.9213 81.1594C33.528 81.1594 37.1117 81.1594 40.6725 81.1594ZM65.5057 70.2164C66.4017 70.2164 67.2746 70.2164 68.1706 70.2164C68.2165 70.2164 68.2854 70.2164 68.3314 70.2164C69.7557 70.1484 70.7435 69.2648 70.8583 67.9281C70.9732 66.4781 70.1462 65.2773 68.6759 65.1867C66.5855 65.0734 64.495 65.0734 62.4274 65.1867C61.0491 65.2773 60.1991 66.4555 60.268 67.7922C60.3369 69.1742 61.3247 70.1484 62.772 70.1937C63.6679 70.2391 64.5868 70.2164 65.5057 70.2164ZM65.5976 87.0047C64.6787 87.0047 63.7598 87.0047 62.8409 87.0047C62.795 87.0047 62.7261 87.0047 62.6801 87.0047C61.3247 87.0953 60.3829 88.0016 60.268 89.3156C60.1532 90.6523 60.9572 91.8984 62.3355 91.9664C64.495 92.1023 66.6773 92.1023 68.8368 91.9664C70.2151 91.8758 70.9502 90.675 70.8583 89.2703C70.7664 87.9789 69.8016 87.05 68.4233 87.0047C67.4814 86.982 66.5395 87.0047 65.5976 87.0047ZM65.5976 81.1367C66.5165 81.1367 67.4354 81.182 68.3543 81.1367C69.8705 81.0687 70.8583 80.0945 70.8813 78.6898C70.9273 77.2172 69.9854 76.1523 68.4233 76.0844C66.5395 76.0164 64.6558 76.0164 62.749 76.0844C61.2099 76.1297 60.2221 77.2172 60.245 78.6445C60.268 80.0719 61.2788 81.0687 62.8409 81.1367C63.7598 81.182 64.6787 81.1594 65.5976 81.1367Z" fill="#5438FF"/>
<path d="M65.4365 17.7445C70.3756 22.6156 75.2688 27.464 80.1619 32.3125C75.2917 32.3125 70.3986 32.3125 65.4365 32.3125C65.4365 27.4414 65.4365 22.5929 65.4365 17.7445Z" fill="#5438FF"/>
</svg>
