<svg width="47" height="47" viewBox="0 0 47 47" fill="none" xmlns="http://www.w3.org/2000/svg">
<path d="M34.5 13.7381L45 18.619V44L31.6364 38.1429M31.6364 38.1429L16.3636 44M31.6364 38.1429V24.4762M16.3636 44L3 38.1429V12.7619L12.5455 16.6667M16.3636 44V24.4762M24 32.8187C24 32.8187 12.5455 23.5 12.5455 14.7143C12.5455 7.39286 18.2727 3 24 3C29.7273 3 35.4545 7.39286 35.4545 14.7143C35.4545 23.5 24 32.8187 24 32.8187ZM25.9091 14.7143C25.9091 14.1965 25.708 13.6999 25.3499 13.3337C24.9919 12.9676 24.5063 12.7619 24 12.7619C23.4937 12.7619 23.0081 12.9676 22.6501 13.3337C22.292 13.6999 22.0909 14.1965 22.0909 14.7143C22.0909 15.2321 22.292 15.7287 22.6501 16.0948C23.0081 16.461 23.4937 16.6667 24 16.6667C24.5063 16.6667 24.9919 16.461 25.3499 16.0948C25.708 15.7287 25.9091 15.2321 25.9091 14.7143Z" stroke="#161616" stroke-width="4" stroke-linejoin="round"/>
</svg>
