<svg width="49" height="49" viewBox="0 0 49 49" fill="none" xmlns="http://www.w3.org/2000/svg">
<path d="M31.683 5.61269H10.1341V43.3872H38.8659V12.6954H31.683V5.61269ZM10.1341 0.890869H34.0773L43.6545 10.3345V43.3872C43.6545 44.6395 43.15 45.8406 42.252 46.7261C41.3539 47.6116 40.1359 48.1091 38.8659 48.1091H10.1341C8.86407 48.1091 7.64606 47.6116 6.74802 46.7261C5.84997 45.8406 5.34546 44.6395 5.34546 43.3872V5.61269C5.34546 4.36038 5.84997 3.15937 6.74802 2.27386C7.64606 1.38834 8.86407 0.890869 10.1341 0.890869ZM14.9227 22.1391H34.0773V26.8609H14.9227V22.1391ZM14.9227 31.5827H34.0773V36.3045H14.9227V31.5827Z" fill="#161616"/>
</svg>
