<svg width="28" height="22" viewBox="0 0 28 22" fill="none" xmlns="http://www.w3.org/2000/svg">
<path d="M20.3235 4.4275C20.5187 4.62 20.626 4.88262 20.626 5.15625V8.59375C20.626 8.86725 20.5173 9.12956 20.3239 9.32295C20.1305 9.51635 19.8682 9.625 19.5947 9.625C19.3212 9.625 19.0589 9.51635 18.8655 9.32295C18.6721 9.12956 18.5635 8.86725 18.5635 8.59375V7.645L16.1985 10.01C16.1033 10.1084 15.9894 10.187 15.8636 10.2409C15.7378 10.2949 15.6024 10.3233 15.4655 10.3244C15.3286 10.3256 15.1928 10.2994 15.0661 10.2475C14.9394 10.1956 14.8243 10.119 14.7275 10.0221C14.6307 9.92521 14.5542 9.81003 14.5024 9.68327C14.4506 9.55651 14.4246 9.42071 14.4258 9.28378C14.4271 9.14685 14.4556 9.01155 14.5097 8.88575C14.5638 8.75996 14.6424 8.64621 14.741 8.55112L17.106 6.1875H16.1572C15.8837 6.1875 15.6214 6.07885 15.428 5.88545C15.2346 5.69206 15.126 5.42975 15.126 5.15625C15.126 4.88275 15.2346 4.62044 15.428 4.42705C15.6214 4.23365 15.8837 4.125 16.1572 4.125H19.5947C19.8681 4.12524 20.1302 4.23405 20.3235 4.4275Z" fill="#FFAC00"/>
<path d="M6.875 16.8438C6.875 17.1173 6.98365 17.3796 7.17705 17.573C7.37044 17.7664 7.63275 17.875 7.90625 17.875H11.3451C11.6186 17.875 11.8809 17.7664 12.0743 17.573C12.2677 17.3796 12.3764 17.1173 12.3764 16.8438C12.3764 16.5703 12.2677 16.308 12.0743 16.1146C11.8809 15.9212 11.6186 15.8125 11.3451 15.8125H10.3964L12.7614 13.4475C12.9491 13.2529 13.053 12.9924 13.0505 12.722C13.048 12.4516 12.9394 12.193 12.7481 12.0019C12.5568 11.8108 12.2981 11.7025 12.0277 11.7002C11.7574 11.698 11.4969 11.8021 11.3025 11.99L8.9375 14.3523V13.4035C8.9375 13.13 8.82885 12.8677 8.63545 12.6743C8.44206 12.4809 8.17975 12.3723 7.90625 12.3723C7.63275 12.3723 7.37044 12.4809 7.17705 12.6743C6.98365 12.8677 6.875 13.13 6.875 13.4035V16.841V16.8438Z" fill="#FFAC00"/>
<path d="M0 3.78125C0 2.7784 0.398381 1.81662 1.1075 1.1075C1.81662 0.39838 2.7784 0 3.78125 0H23.7188C24.7216 0 25.6834 0.39838 26.3925 1.1075C27.1016 1.81662 27.5 2.7784 27.5 3.78125V18.2188C27.5 18.7153 27.4022 19.207 27.2122 19.6658C27.0221 20.1245 26.7436 20.5414 26.3925 20.8925C26.0414 21.2436 25.6245 21.5221 25.1658 21.7122C24.707 21.9022 24.2153 22 23.7188 22H3.78125C3.28469 22 2.79299 21.9022 2.33423 21.7122C1.87547 21.5221 1.45862 21.2436 1.1075 20.8925C0.756381 20.5414 0.477856 20.1245 0.287831 19.6658C0.0978049 19.207 0 18.7153 0 18.2188V3.78125ZM3.78125 2.0625C2.8325 2.0625 2.0625 2.8325 2.0625 3.78125V18.2188C2.0625 19.1675 2.8325 19.9375 3.78125 19.9375H23.7188C24.6675 19.9375 25.4375 19.1675 25.4375 18.2188V3.78125C25.4375 2.8325 24.6675 2.0625 23.7188 2.0625H3.78125Z" fill="#FFAC00"/>
</svg>
