<svg width="33" height="33" viewBox="0 0 33 33" fill="none" xmlns="http://www.w3.org/2000/svg">
<path d="M10.5674 9.73236H15.5412V2.09473C13.4649 2.77651 11.5977 5.69095 10.5674 9.73236Z" fill="#FBAC18"/>
<path d="M10.5674 23.2676C11.5977 27.309 13.4649 30.2234 15.5412 30.9052V23.2676H10.5674Z" fill="#FBAC18"/>
<path d="M32.0332 11.666H0.966797C0.432867 11.666 0 12.0988 0 12.6328V20.3672C0 20.9011 0.432867 21.334 0.966797 21.334H32.0332C32.5671 21.334 33 20.9011 33 20.3672V12.6328C33 12.0988 32.5671 11.666 32.0332 11.666ZM30.9 14.9988L28.9664 18.866C28.8021 19.1936 28.4679 19.4004 28.1016 19.4004C27.7352 19.4004 27.401 19.1936 27.2367 18.866L26.168 16.7285L25.0992 18.866C24.7706 19.5212 23.6981 19.5212 23.3695 18.866L21.5172 15.1603C21.4057 15.0235 21.3422 14.8517 21.3216 14.6682C21.3097 14.78 21.2853 14.8923 21.232 14.9988L19.2984 18.866C19.1341 19.1936 18.7999 19.4004 18.4336 19.4004C18.0672 19.4004 17.7331 19.1936 17.5688 18.866L16.5 16.7285L15.4312 18.866C15.1027 19.5212 14.0302 19.5212 13.7016 18.866L11.768 14.9988C11.7167 14.8964 11.6947 14.7883 11.6818 14.6807C11.6575 14.8891 11.5789 15.0789 11.4516 15.2235L9.63039 18.866C9.46617 19.1936 9.13198 19.4004 8.76562 19.4004C8.39927 19.4004 8.06508 19.1936 7.90079 18.866L6.83203 16.7285L5.76327 18.866C5.59898 19.1936 5.26479 19.4004 4.89844 19.4004C4.53209 19.4004 4.1979 19.1936 4.03361 18.866L2.10001 14.9988C1.86115 14.5211 2.0547 13.9404 2.53243 13.7016C3.00919 13.4655 3.58894 13.6553 3.82968 14.134L4.89844 16.2715L5.9672 14.134C6.30925 13.4476 7.33928 13.4188 7.69686 14.134L8.76562 16.2715L9.83439 14.134C10.0081 13.7865 10.3735 13.5977 10.7615 13.6015C11.2612 13.6343 11.6585 14.0464 11.6795 14.5366C11.691 14.1937 11.8719 13.8658 12.2004 13.7015C12.6791 13.4655 13.2578 13.6552 13.4976 14.1339L14.5664 16.2715L15.6352 14.134C15.9637 13.4788 17.0362 13.4788 17.3648 14.134L18.4336 16.2715L19.5024 14.134C19.7412 13.6553 20.3219 13.4655 20.7996 13.7016C21.1254 13.8644 21.3049 14.1881 21.3194 14.5278C21.3381 14.0421 21.6834 13.6378 22.1799 13.6053C22.5783 13.5959 22.9918 13.7866 23.1656 14.134L24.2344 16.2715L25.3031 14.134C25.6317 13.4788 26.7042 13.4788 27.0328 14.134L28.1016 16.2715L29.1703 14.134C29.4102 13.6553 29.9889 13.4655 30.4676 13.7016C30.9453 13.9404 31.1389 14.5211 30.9 14.9988Z" fill="#FBAC18"/>
<path d="M17.4722 23.2676V30.9052C19.5485 30.2234 21.4157 27.309 22.446 23.2676H17.4722Z" fill="#FBAC18"/>
<path d="M17.4722 2.09473V9.73236H22.446C21.4157 5.69095 19.5485 2.77651 17.4722 2.09473Z" fill="#FBAC18"/>
<path d="M8.57847 23.2676H1.58691C4.22956 29.0698 10.0812 33 16.505 33C13.0125 33 9.9615 29.1538 8.57847 23.2676Z" fill="#FBAC18"/>
<path d="M24.4265 23.2676C23.0435 29.1538 19.9925 33 16.5 33C22.9238 33 28.7754 29.0698 31.4181 23.2676H24.4265Z" fill="#FBAC18"/>
<path d="M1.58691 9.73242H8.57847C9.9615 3.84618 13.0125 0 16.505 0C10.0812 0 4.22956 3.93022 1.58691 9.73242Z" fill="#FBAC18"/>
<path d="M16.5 0C19.9925 0 23.0435 3.84618 24.4265 9.73242H31.4181C28.7754 3.93022 22.9238 0 16.5 0Z" fill="#FBAC18"/>
</svg>
