<svg width="14" height="24" viewBox="0 0 14 24" fill="none" xmlns="http://www.w3.org/2000/svg">
<path d="M9 0C10.3261 0 11.5979 0.526784 12.5355 1.46447C13.4732 2.40215 14 3.67392 14 5V17C14 17.9193 13.8189 18.8295 13.4672 19.6788C13.1154 20.5281 12.5998 21.2997 11.9497 21.9497C11.2997 22.5998 10.5281 23.1154 9.67878 23.4672C8.8295 23.8189 7.91925 24 7 24C6.08075 24 5.17049 23.8189 4.32122 23.4672C3.47194 23.1154 2.70026 22.5998 2.05025 21.9497C1.40024 21.2997 0.884626 20.5281 0.532843 19.6788C0.18106 18.8295 -1.36979e-08 17.9193 0 17V9H2V17C2 18.3261 2.52678 19.5979 3.46447 20.5355C4.40215 21.4732 5.67392 22 7 22C8.32608 22 9.59785 21.4732 10.5355 20.5355C11.4732 19.5979 12 18.3261 12 17V5C12 4.60603 11.9224 4.21593 11.7716 3.85195C11.6209 3.48797 11.3999 3.15726 11.1213 2.87868C10.8427 2.6001 10.512 2.37913 10.1481 2.22836C9.78407 2.0776 9.39397 2 9 2C8.60603 2 8.21593 2.0776 7.85195 2.22836C7.48797 2.37913 7.15726 2.6001 6.87868 2.87868C6.6001 3.15726 6.37913 3.48797 6.22836 3.85195C6.0776 4.21593 6 4.60603 6 5V17C6 17.2652 6.10536 17.5196 6.29289 17.7071C6.48043 17.8946 6.73478 18 7 18C7.26522 18 7.51957 17.8946 7.70711 17.7071C7.89464 17.5196 8 17.2652 8 17V6H10V17C10 17.7956 9.68393 18.5587 9.12132 19.1213C8.55871 19.6839 7.79565 20 7 20C6.20435 20 5.44129 19.6839 4.87868 19.1213C4.31607 18.5587 4 17.7956 4 17V5C4 3.67392 4.52678 2.40215 5.46447 1.46447C6.40215 0.526784 7.67392 0 9 0V0Z" fill="white"/>
</svg>
