<svg width="10" height="20" viewBox="0 0 10 20" fill="none" xmlns="http://www.w3.org/2000/svg">
<path d="M8.58093 0.00339305C8.91191 0.00274649 9.23268 0.118021 9.48754 0.329206C9.63098 0.448126 9.74955 0.594179 9.83646 0.758993C9.92337 0.923809 9.97691 1.10415 9.99402 1.28969C10.0111 1.47523 9.99146 1.66232 9.93615 1.84025C9.88084 2.01817 9.79097 2.18344 9.6717 2.32659L3.32541 9.91946L9.44504 17.5265C9.56271 17.6714 9.65058 17.8381 9.70361 18.0171C9.75663 18.1961 9.77376 18.3838 9.75402 18.5694C9.73427 18.755 9.67804 18.9349 9.58855 19.0987C9.49906 19.2625 9.37807 19.407 9.23255 19.5239C9.08598 19.6528 8.91434 19.7501 8.7284 19.8096C8.54246 19.8691 8.34622 19.8895 8.15202 19.8695C7.95782 19.8496 7.76983 19.7897 7.59987 19.6937C7.4299 19.5976 7.28163 19.4675 7.16434 19.3114L0.322255 10.8119C0.113902 10.5584 8.42446e-07 10.2405 8.71131e-07 9.91238C8.99815e-07 9.58426 0.113902 9.26632 0.322255 9.01285L7.40516 0.513363C7.54727 0.341932 7.72779 0.206415 7.93208 0.117811C8.13636 0.0292052 8.35866 -0.00999465 8.58093 0.00339305Z" fill="white"/>
</svg>
