<svg width="24" height="24" viewBox="0 0 24 24" fill="none" xmlns="http://www.w3.org/2000/svg">
<path d="M13 8.75C13 8.55109 13.079 8.36032 13.2197 8.21967C13.3603 8.07902 13.5511 8 13.75 8H15.25C15.4489 8 15.6397 8.07902 15.7803 8.21967C15.921 8.36032 16 8.55109 16 8.75V10.25C16 10.4489 15.921 10.6397 15.7803 10.7803C15.6397 10.921 15.4489 11 15.25 11H13.75C13.5511 11 13.3603 10.921 13.2197 10.7803C13.079 10.6397 13 10.4489 13 10.25V8.75Z" fill="#5438FF"/>
<path d="M13 12.75C13 12.5511 13.079 12.3603 13.2197 12.2197C13.3603 12.079 13.5511 12 13.75 12H15.25C15.4489 12 15.6397 12.079 15.7803 12.2197C15.921 12.3603 16 12.5511 16 12.75V14.25C16 14.4489 15.921 14.6397 15.7803 14.7803C15.6397 14.921 15.4489 15 15.25 15H13.75C13.5511 15 13.3603 14.921 13.2197 14.7803C13.079 14.6397 13 14.4489 13 14.25V12.75Z" fill="#5438FF"/>
<path d="M13 16.75C13 16.5511 13.079 16.3603 13.2197 16.2197C13.3603 16.079 13.5511 16 13.75 16H15.25C15.4489 16 15.6397 16.079 15.7803 16.2197C15.921 16.3603 16 16.5511 16 16.75V18.25C16 18.4489 15.921 18.6397 15.7803 18.7803C15.6397 18.921 15.4489 19 15.25 19H13.75C13.5511 19 13.3603 18.921 13.2197 18.7803C13.079 18.6397 13 18.4489 13 18.25V16.75Z" fill="#5438FF"/>
<path d="M8 8.75C8 8.55109 8.07902 8.36032 8.21967 8.21967C8.36032 8.07902 8.55109 8 8.75 8H10.25C10.4489 8 10.6397 8.07902 10.7803 8.21967C10.921 8.36032 11 8.55109 11 8.75V10.25C11 10.4489 10.921 10.6397 10.7803 10.7803C10.6397 10.921 10.4489 11 10.25 11H8.75C8.55109 11 8.36032 10.921 8.21967 10.7803C8.07902 10.6397 8 10.4489 8 10.25V8.75Z" fill="#5438FF"/>
<path d="M8 12.75C8 12.5511 8.07902 12.3603 8.21967 12.2197C8.36032 12.079 8.55109 12 8.75 12H10.25C10.4489 12 10.6397 12.079 10.7803 12.2197C10.921 12.3603 11 12.5511 11 12.75V14.25C11 14.4489 10.921 14.6397 10.7803 14.7803C10.6397 14.921 10.4489 15 10.25 15H8.75C8.55109 15 8.36032 14.921 8.21967 14.7803C8.07902 14.6397 8 14.4489 8 14.25V12.75Z" fill="#5438FF"/>
<path d="M8 16.75C8 16.5511 8.07902 16.3603 8.21967 16.2197C8.36032 16.079 8.55109 16 8.75 16H10.25C10.4489 16 10.6397 16.079 10.7803 16.2197C10.921 16.3603 11 16.5511 11 16.75V18.25C11 18.4489 10.921 18.6397 10.7803 18.7803C10.6397 18.921 10.4489 19 10.25 19H8.75C8.55109 19 8.36032 18.921 8.21967 18.7803C8.07902 18.6397 8 18.4489 8 18.25V16.75Z" fill="#5438FF"/>
<path d="M18 8.75C18 8.55109 18.079 8.36032 18.2197 8.21967C18.3603 8.07902 18.5511 8 18.75 8H20.25C20.4489 8 20.6397 8.07902 20.7803 8.21967C20.921 8.36032 21 8.55109 21 8.75V10.25C21 10.4489 20.921 10.6397 20.7803 10.7803C20.6397 10.921 20.4489 11 20.25 11H18.75C18.5511 11 18.3603 10.921 18.2197 10.7803C18.079 10.6397 18 10.4489 18 10.25V8.75Z" fill="#5438FF"/>
<path d="M18 12.75C18 12.5511 18.079 12.3603 18.2197 12.2197C18.3603 12.079 18.5511 12 18.75 12H20.25C20.4489 12 20.6397 12.079 20.7803 12.2197C20.921 12.3603 21 12.5511 21 12.75V14.25C21 14.4489 20.921 14.6397 20.7803 14.7803C20.6397 14.921 20.4489 15 20.25 15H18.75C18.5511 15 18.3603 14.921 18.2197 14.7803C18.079 14.6397 18 14.4489 18 14.25V12.75Z" fill="#5438FF"/>
<path d="M18 16.75C18 16.5511 18.079 16.3603 18.2197 16.2197C18.3603 16.079 18.5511 16 18.75 16H20.25C20.4489 16 20.6397 16.079 20.7803 16.2197C20.921 16.3603 21 16.5511 21 16.75V18.25C21 18.4489 20.921 18.6397 20.7803 18.7803C20.6397 18.921 20.4489 19 20.25 19H18.75C18.5511 19 18.3603 18.921 18.2197 18.7803C18.079 18.6397 18 18.4489 18 18.25V16.75Z" fill="#5438FF"/>
<path d="M3 8.75C3 8.55109 3.07902 8.36032 3.21967 8.21967C3.36032 8.07902 3.55109 8 3.75 8H5.25C5.44891 8 5.63968 8.07902 5.78033 8.21967C5.92098 8.36032 6 8.55109 6 8.75V10.25C6 10.4489 5.92098 10.6397 5.78033 10.7803C5.63968 10.921 5.44891 11 5.25 11H3.75C3.55109 11 3.36032 10.921 3.21967 10.7803C3.07902 10.6397 3 10.4489 3 10.25V8.75Z" fill="#5438FF"/>
<path d="M3 12.75C3 12.5511 3.07902 12.3603 3.21967 12.2197C3.36032 12.079 3.55109 12 3.75 12H5.25C5.44891 12 5.63968 12.079 5.78033 12.2197C5.92098 12.3603 6 12.5511 6 12.75V14.25C6 14.4489 5.92098 14.6397 5.78033 14.7803C5.63968 14.921 5.44891 15 5.25 15H3.75C3.55109 15 3.36032 14.921 3.21967 14.7803C3.07902 14.6397 3 14.4489 3 14.25V12.75Z" fill="#5438FF"/>
<path d="M3 16.75C3 16.5511 3.07902 16.3603 3.21967 16.2197C3.36032 16.079 3.55109 16 3.75 16H5.25C5.44891 16 5.63968 16.079 5.78033 16.2197C5.92098 16.3603 6 16.5511 6 16.75V18.25C6 18.4489 5.92098 18.6397 5.78033 18.7803C5.63968 18.921 5.44891 19 5.25 19H3.75C3.55109 19 3.36032 18.921 3.21967 18.7803C3.07902 18.6397 3 18.4489 3 18.25V16.75Z" fill="#5438FF"/>
<path d="M5.25 0C5.44891 0 5.63968 0.0790176 5.78033 0.21967C5.92098 0.360322 6 0.551088 6 0.75V1.5H18V0.75C18 0.551088 18.079 0.360322 18.2197 0.21967C18.3603 0.0790176 18.5511 0 18.75 0C18.9489 0 19.1397 0.0790176 19.2803 0.21967C19.421 0.360322 19.5 0.551088 19.5 0.75V1.5H21C21.7956 1.5 22.5587 1.81607 23.1213 2.37868C23.6839 2.94129 24 3.70435 24 4.5V21C24 21.7956 23.6839 22.5587 23.1213 23.1213C22.5587 23.6839 21.7956 24 21 24H3C2.20435 24 1.44129 23.6839 0.87868 23.1213C0.316071 22.5587 0 21.7956 0 21V4.5C0 3.70435 0.316071 2.94129 0.87868 2.37868C1.44129 1.81607 2.20435 1.5 3 1.5H4.5V0.75C4.5 0.551088 4.57902 0.360322 4.71967 0.21967C4.86032 0.0790176 5.05109 0 5.25 0V0ZM1.5 6V21C1.5 21.3978 1.65804 21.7794 1.93934 22.0607C2.22064 22.342 2.60218 22.5 3 22.5H21C21.3978 22.5 21.7794 22.342 22.0607 22.0607C22.342 21.7794 22.5 21.3978 22.5 21V6H1.5Z" fill="#5438FF"/>
</svg>
