<svg width="31" height="24" viewBox="0 0 31 24" fill="none" xmlns="http://www.w3.org/2000/svg">
<path fill-rule="evenodd" clip-rule="evenodd" d="M5.16667 0C3.79638 0 2.48222 0.544343 1.51328 1.51328C0.544344 2.48222 0 3.79638 0 5.16667L0 18.0833C0 19.4536 0.544344 20.7678 1.51328 21.7367C2.48222 22.7057 3.79638 23.25 5.16667 23.25H25.8333C27.2036 23.25 28.5178 22.7057 29.4867 21.7367C30.4557 20.7678 31 19.4536 31 18.0833V5.16667C31 3.79638 30.4557 2.48222 29.4867 1.51328C28.5178 0.544343 27.2036 0 25.8333 0H5.16667ZM25.8333 2.58333H5.16667C4.48152 2.58333 3.82444 2.8555 3.33997 3.33997C2.8555 3.82444 2.58333 4.48152 2.58333 5.16667V14.2083H28.4167V5.16667C28.4167 4.48152 28.1445 3.82444 27.66 3.33997C27.1756 2.8555 26.5185 2.58333 25.8333 2.58333ZM28.4167 16.7917H2.58333V18.0833C2.58333 18.7685 2.8555 19.4256 3.33997 19.91C3.82444 20.3945 4.48152 20.6667 5.16667 20.6667H25.8333C26.5185 20.6667 27.1756 20.3945 27.66 19.91C28.1445 19.4256 28.4167 18.7685 28.4167 18.0833V16.7917Z" fill="#FFAC00"/>
</svg>
