<svg width="25" height="25" viewBox="0 0 25 25" fill="none" xmlns="http://www.w3.org/2000/svg">
<path d="M24 0H1C0.446875 0 0 0.446875 0 1V24C0 24.5531 0.446875 25 1 25H24C24.5531 25 25 24.5531 25 24V1C25 0.446875 24.5531 0 24 0ZM18.2344 7.92813L11.6531 17.0531C11.5611 17.1815 11.4399 17.2861 11.2994 17.3583C11.1589 17.4305 11.0032 17.4681 10.8453 17.4681C10.6874 17.4681 10.5317 17.4305 10.3912 17.3583C10.2507 17.2861 10.1295 17.1815 10.0375 17.0531L6.14062 11.6531C6.02187 11.4875 6.14062 11.2563 6.34375 11.2563H7.80937C8.12813 11.2563 8.43125 11.4094 8.61875 11.6719L10.8438 14.7594L15.7563 7.94687C15.9438 7.6875 16.2437 7.53125 16.5656 7.53125H18.0312C18.2344 7.53125 18.3531 7.7625 18.2344 7.92813Z" fill="#FBAC18"/>
</svg>
