<svg width="66" height="69" viewBox="0 0 66 69" fill="none" xmlns="http://www.w3.org/2000/svg">
<circle cx="44" cy="22" r="22" fill="#FBAC18" fill-opacity="0.4"/>
<path d="M6.375 18C4.68424 18 3.06274 18.6716 1.86719 19.8672C0.67165 21.0627 0 22.6842 0 24.375V62.625C0 64.3158 0.67165 65.9373 1.86719 67.1328C3.06274 68.3283 4.68424 69 6.375 69H44.625C46.3158 69 47.9373 68.3283 49.1328 67.1328C50.3283 65.9373 51 64.3158 51 62.625V24.375C51 22.6842 50.3283 21.0627 49.1328 19.8672C47.9373 18.6716 46.3158 18 44.625 18H6.375ZM22.0433 34.3767L16.3767 40.0433C15.9782 40.4413 15.4381 40.6648 14.875 40.6648C14.3119 40.6648 13.7718 40.4413 13.3733 40.0433L10.54 37.21C10.1646 36.8072 9.96029 36.2744 9.97 35.7239C9.97972 35.1733 10.2027 34.6481 10.5921 34.2587C10.9814 33.8694 11.5067 33.6464 12.0572 33.6367C12.6077 33.627 13.1405 33.8313 13.5433 34.2067L14.875 35.5383L19.04 31.3733C19.2345 31.1646 19.4691 30.9971 19.7298 30.881C19.9905 30.7648 20.2719 30.7024 20.5572 30.6973C20.8425 30.6923 21.1259 30.7448 21.3905 30.8517C21.6551 30.9585 21.8955 31.1176 22.0973 31.3194C22.2991 31.5212 22.4581 31.7615 22.565 32.0261C22.6719 32.2907 22.7244 32.5742 22.7193 32.8595C22.7143 33.1448 22.6519 33.4262 22.5357 33.6869C22.4196 33.9475 22.2521 34.1821 22.0433 34.3767ZM38.9583 33.5833C39.5219 33.5833 40.0624 33.8072 40.4609 34.2057C40.8595 34.6042 41.0833 35.1447 41.0833 35.7083C41.0833 36.2719 40.8595 36.8124 40.4609 37.2109C40.0624 37.6094 39.5219 37.8333 38.9583 37.8333H29.0417C28.4781 37.8333 27.9376 37.6094 27.5391 37.2109C27.1406 36.8124 26.9167 36.2719 26.9167 35.7083C26.9167 35.1447 27.1406 34.6042 27.5391 34.2057C27.9376 33.8072 28.4781 33.5833 29.0417 33.5833H38.9583ZM26.9167 51.2917C26.9167 50.7281 27.1406 50.1876 27.5391 49.7891C27.9376 49.3906 28.4781 49.1667 29.0417 49.1667H38.9583C39.5219 49.1667 40.0624 49.3906 40.4609 49.7891C40.8595 50.1876 41.0833 50.7281 41.0833 51.2917C41.0833 51.8553 40.8595 52.3958 40.4609 52.7943C40.0624 53.1928 39.5219 53.4167 38.9583 53.4167H29.0417C28.4781 53.4167 27.9376 53.1928 27.5391 52.7943C27.1406 52.3958 26.9167 51.8553 26.9167 51.2917ZM22.0433 46.9567C22.4413 47.3551 22.6648 47.8952 22.6648 48.4583C22.6648 49.0215 22.4413 49.5616 22.0433 49.96L16.3767 55.6267C15.9782 56.0246 15.4381 56.2481 14.875 56.2481C14.3119 56.2481 13.7718 56.0246 13.3733 55.6267L10.54 52.7933C10.3312 52.5988 10.1638 52.3642 10.0476 52.1035C9.93148 51.8429 9.86903 51.5615 9.86399 51.2761C9.85896 50.9908 9.91144 50.7074 10.0183 50.4428C10.1252 50.1782 10.2843 49.9378 10.4861 49.7361C10.6878 49.5343 10.9282 49.3752 11.1928 49.2683C11.4574 49.1614 11.7408 49.109 12.0261 49.114C12.3115 49.119 12.5929 49.1815 12.8535 49.2976C13.1142 49.4138 13.3488 49.5812 13.5433 49.79L14.875 51.1217L19.04 46.9567C19.4384 46.5587 19.9785 46.3352 20.5417 46.3352C21.1048 46.3352 21.6449 46.5587 22.0433 46.9567Z" fill="#5438FF"/>
</svg>
