<svg width="73" height="69" viewBox="0 0 73 69" fill="none" xmlns="http://www.w3.org/2000/svg">
<circle cx="22" cy="22" r="22" fill="#FBAC18" fill-opacity="0.4"/>
<path d="M28.375 18C26.6842 18 25.0627 18.6716 23.8672 19.8672C22.6716 21.0627 22 22.6842 22 24.375V62.625C22 64.3158 22.6716 65.9373 23.8672 67.1328C25.0627 68.3283 26.6842 69 28.375 69H66.625C68.3158 69 69.9373 68.3283 71.1328 67.1328C72.3283 65.9373 73 64.3158 73 62.625V24.375C73 22.6842 72.3283 21.0627 71.1328 19.8672C69.9373 18.6716 68.3158 18 66.625 18H28.375ZM44.0433 34.3767L38.3767 40.0433C37.9782 40.4413 37.4381 40.6648 36.875 40.6648C36.3119 40.6648 35.7718 40.4413 35.3733 40.0433L32.54 37.21C32.1646 36.8072 31.9603 36.2744 31.97 35.7239C31.9797 35.1733 32.2027 34.6481 32.5921 34.2587C32.9814 33.8694 33.5067 33.6464 34.0572 33.6367C34.6077 33.627 35.1405 33.8313 35.5433 34.2067L36.875 35.5383L41.04 31.3733C41.2345 31.1646 41.4691 30.9971 41.7298 30.881C41.9905 30.7648 42.2719 30.7024 42.5572 30.6973C42.8425 30.6923 43.1259 30.7448 43.3905 30.8517C43.6551 30.9585 43.8955 31.1176 44.0973 31.3194C44.2991 31.5212 44.4581 31.7615 44.565 32.0261C44.6719 32.2907 44.7244 32.5742 44.7193 32.8595C44.7143 33.1448 44.6519 33.4262 44.5357 33.6869C44.4196 33.9475 44.2521 34.1821 44.0433 34.3767ZM60.9583 33.5833C61.5219 33.5833 62.0624 33.8072 62.4609 34.2057C62.8595 34.6042 63.0833 35.1447 63.0833 35.7083C63.0833 36.2719 62.8595 36.8124 62.4609 37.2109C62.0624 37.6094 61.5219 37.8333 60.9583 37.8333H51.0417C50.4781 37.8333 49.9376 37.6094 49.5391 37.2109C49.1406 36.8124 48.9167 36.2719 48.9167 35.7083C48.9167 35.1447 49.1406 34.6042 49.5391 34.2057C49.9376 33.8072 50.4781 33.5833 51.0417 33.5833H60.9583ZM48.9167 51.2917C48.9167 50.7281 49.1406 50.1876 49.5391 49.7891C49.9376 49.3906 50.4781 49.1667 51.0417 49.1667H60.9583C61.5219 49.1667 62.0624 49.3906 62.4609 49.7891C62.8595 50.1876 63.0833 50.7281 63.0833 51.2917C63.0833 51.8553 62.8595 52.3958 62.4609 52.7943C62.0624 53.1928 61.5219 53.4167 60.9583 53.4167H51.0417C50.4781 53.4167 49.9376 53.1928 49.5391 52.7943C49.1406 52.3958 48.9167 51.8553 48.9167 51.2917ZM44.0433 46.9567C44.4413 47.3551 44.6648 47.8952 44.6648 48.4583C44.6648 49.0215 44.4413 49.5616 44.0433 49.96L38.3767 55.6267C37.9782 56.0246 37.4381 56.2481 36.875 56.2481C36.3119 56.2481 35.7718 56.0246 35.3733 55.6267L32.54 52.7933C32.3312 52.5988 32.1638 52.3642 32.0476 52.1035C31.9315 51.8429 31.869 51.5615 31.864 51.2761C31.859 50.9908 31.9114 50.7074 32.0183 50.4428C32.1252 50.1782 32.2843 49.9378 32.4861 49.7361C32.6878 49.5343 32.9282 49.3752 33.1928 49.2683C33.4574 49.1614 33.7408 49.109 34.0261 49.114C34.3115 49.119 34.5929 49.1815 34.8535 49.2976C35.1142 49.4138 35.3488 49.5812 35.5433 49.79L36.875 51.1217L41.04 46.9567C41.4384 46.5587 41.9785 46.3352 42.5417 46.3352C43.1048 46.3352 43.6449 46.5587 44.0433 46.9567Z" fill="#5438FF"/>
</svg>
