<svg width="59" height="76" viewBox="0 0 59 76" fill="none" xmlns="http://www.w3.org/2000/svg">
<path d="M54.7 60.4961C52.1677 57.6051 48.7615 55.6405 45.0263 54.8979V53.7506C45.0263 53.138 44.5298 52.6416 43.9173 52.6416H39.4812C39.1971 52.6416 38.9381 52.7485 38.7419 52.924V50.8697C41.187 50.0344 43.4262 48.6414 45.3037 46.7554C45.7358 46.3212 45.7343 45.619 45.3002 45.187C44.8662 44.7548 44.1639 44.7562 43.7319 45.1906C41.9391 46.9915 39.7672 48.2758 37.3954 48.969C37.3486 48.9792 37.3029 48.9923 37.2586 49.0082C35.9572 49.3749 34.5969 49.5644 33.2072 49.5644H33.1865C24.998 49.5644 18.336 42.9025 18.336 34.7137V25.8033H48.0578V34.7139C48.0578 37.1307 47.4644 39.529 46.3419 41.65C46.0553 42.1914 46.2619 42.8625 46.8034 43.1491C47.347 43.4367 48.0168 43.227 48.3024 42.6878C49.5783 40.2769 50.2597 37.5556 50.2755 34.8119C50.6029 34.8872 50.9367 34.9255 51.2726 34.9255C54.5014 34.9255 56.1908 31.2737 56.1908 27.6664C56.1908 26.9593 56.129 26.294 56.0065 25.6761C57.1402 25.3205 57.9652 24.2599 57.9652 23.0104V18.9847C57.9652 17.4446 56.7123 16.1917 55.1722 16.1917H55.0075V10.1805C55.0075 4.56695 50.4406 0 44.827 0H21.5665C15.9529 0 11.386 4.56695 11.386 10.1805V10.6096C11.386 11.2223 11.8825 11.7187 12.495 11.7187C13.1075 11.7187 13.604 11.2223 13.604 10.6096V10.1805C13.604 5.78999 17.176 2.21805 21.5665 2.21805H44.8271C49.2177 2.21805 52.7896 5.78999 52.7896 10.1805V16.1917H13.6042V15.3662C13.6042 14.7535 13.1076 14.2572 12.4951 14.2572C11.8827 14.2572 11.3861 14.7535 11.3861 15.3662V16.1917H11.2217C9.68162 16.1917 8.42872 17.4446 8.42872 18.9847V23.0104C8.42872 24.2599 9.25354 25.3205 10.3874 25.6761C10.265 26.2942 10.2032 26.9595 10.2032 27.6664C10.2032 31.2737 11.8924 34.9255 15.1213 34.9255C15.4573 34.9255 15.791 34.8872 16.1182 34.8119C16.1602 42.2449 20.9777 48.5676 27.6518 50.8617V52.9242C27.4556 52.7485 27.1965 52.6418 26.9124 52.6418H22.4763C21.8639 52.6418 21.3673 53.1382 21.3673 53.7508V54.8981C18.3316 55.5011 15.5232 56.9056 13.2185 58.9586C12.7474 57.7384 11.6234 56.8404 10.2771 56.6947V55.0075H18.4C19.0125 55.0075 19.509 54.5111 19.509 53.8985C19.509 53.2859 19.0125 52.7895 18.4 52.7895H18.1063V47.3183H18.4C19.0125 47.3183 19.509 46.8219 19.509 46.2093C19.509 45.5966 19.0125 45.1003 18.4 45.1003H10.2769V44.1391C10.2769 42.223 8.7181 40.6642 6.80201 40.6642C4.88591 40.6642 3.32707 42.223 3.32707 44.1391V45.1003H2.14411C1.53163 45.1003 1.03509 45.5966 1.03509 46.2093C1.03509 46.8219 1.53163 47.3183 2.14411 47.3183H3.32707V52.7895H2.14411C1.53163 52.7895 1.03509 53.2859 1.03509 53.8985C1.03509 54.5111 1.53163 55.0075 2.14411 55.0075H3.32707V56.6739H2.05953C0.92389 56.6739 0 57.5978 0 58.7334V69.8205C0 70.935 0.889732 71.8454 1.99624 71.879V74.0088C1.99624 74.9464 2.7591 75.7093 3.69674 75.7093H57.891C58.5035 75.7093 59 75.2129 59 74.6003V71.9386C59 67.7256 57.473 63.6619 54.7 60.4961ZM51.2723 32.7073C50.9305 32.7073 50.5969 32.6303 50.2757 32.4775V25.8033H53.7614C53.9003 26.3588 53.9724 26.9904 53.9724 27.6664C53.9724 30.1443 52.9625 32.7073 51.2723 32.7073ZM10.6466 18.9847C10.6466 18.6677 10.9045 18.4098 11.2215 18.4098H55.172C55.489 18.4098 55.7469 18.6677 55.7469 18.9847V23.0104C55.7469 23.3275 55.489 23.5854 55.172 23.5854C52.561 23.5854 13.63 23.5854 11.2215 23.5854C10.9045 23.5854 10.6466 23.3275 10.6466 23.0104V18.9847ZM12.4211 27.6664C12.4211 26.9905 12.4932 26.359 12.6321 25.8033H16.1178V32.4776C15.7965 32.6303 15.4629 32.7074 15.1212 32.7074C13.431 32.7073 12.4211 30.1443 12.4211 27.6664ZM42.8083 54.8596C42.8083 55.0321 42.8083 60.9866 42.8083 63.584H40.5902C40.5902 59.5694 40.5902 57.7186 40.5902 54.8596H42.8083ZM33.1864 51.7825H33.2071C34.3334 51.7825 35.443 51.6741 36.5238 51.4625V53.307C36.5238 54.63 37.2512 55.7937 38.3722 56.3817V63.584H28.0213V56.3817C29.1423 55.7937 29.8697 54.63 29.8697 53.307V51.4591C30.9429 51.6713 32.0519 51.7825 33.1864 51.7825ZM25.8033 54.8596C25.8033 57.452 25.8033 59.7778 25.8033 63.584H23.5852C23.5852 61.1246 23.5852 57.7573 23.5852 54.8596H25.8033ZM5.54511 47.3183H8.0589V52.7895H5.54511V47.3183ZM10.2769 47.3183H11.1563V52.7895H10.2769V47.3183ZM15.8882 47.3183V52.7895H13.3744V47.3183H15.8882ZM5.54511 44.1391C5.54511 43.446 6.10894 42.8822 6.80201 42.8822C7.49507 42.8822 8.0589 43.446 8.0589 44.1391V45.1003H5.54511V44.1391ZM5.54511 55.0075H8.0589V56.6739H5.54511V55.0075ZM2.21805 58.8919C4.76185 58.8919 7.68567 58.8919 9.89115 58.8919C10.6338 58.8919 11.2381 59.4963 11.2381 60.2389V67.925C11.2381 68.8827 10.459 69.6617 9.50137 69.6617H3.13572C3.12552 69.6614 3.11547 69.6613 3.10526 69.6613C3.09506 69.6613 3.08486 69.6614 3.0748 69.6617H2.21805V58.8919ZM4.21429 73.4912V71.8799H9.24185V73.4912H4.21429ZM21.589 73.4912V72.1112C21.589 71.4985 21.0924 71.0021 20.4799 71.0021C19.8675 71.0021 19.3709 71.4985 19.3709 72.1112V73.4912H11.4599V71.3598C12.6514 70.6777 13.4561 69.3936 13.4561 67.925V61.8514C15.5577 59.496 18.3203 57.8647 21.3672 57.1658V63.584C20.2664 63.584 19.3709 64.4795 19.3709 65.5802V67.3793C19.3709 67.992 19.8675 68.4883 20.4799 68.4883C21.0924 68.4883 21.589 67.992 21.589 67.3793V65.802H44.8045V73.4912H21.589ZM56.782 73.4912H47.0226V65.5802C47.0226 64.4795 46.1271 63.584 45.0263 63.584V57.1661C48.1134 57.875 50.9201 59.5471 53.0315 61.9577C55.4499 64.7189 56.782 68.2634 56.782 71.9386V73.4912Z" fill="#FFAC00"/>
</svg>
