<svg width="23" height="23" viewBox="0 0 23 23" fill="none" xmlns="http://www.w3.org/2000/svg">
<path d="M12.3625 10.0625C11.7875 9.91875 11.2125 9.63125 10.7812 9.2C10.35 9.05625 10.2063 8.625 10.2063 8.3375C10.2063 8.05 10.35 7.61875 10.6375 7.475C11.0687 7.1875 11.5 6.9 11.9313 7.04375C12.7938 7.04375 13.5125 7.475 13.9437 8.05L15.2375 6.325C14.8063 5.89375 14.375 5.60625 13.9437 5.31875C13.5125 5.03125 12.9375 4.8875 12.3625 4.8875V2.875H10.6375V4.8875C9.91875 5.03125 9.2 5.4625 8.625 6.0375C8.05 6.75625 7.61875 7.61875 7.7625 8.48125C7.7625 9.34375 8.05 10.2063 8.625 10.7812C9.34375 11.5 10.35 11.9313 11.2125 12.3625C11.6438 12.5063 12.2188 12.7938 12.65 13.0813C12.9375 13.3688 13.0813 13.8 13.0813 14.2312C13.0813 14.6625 12.9375 15.0938 12.65 15.525C12.2188 15.9563 11.6438 16.1 11.2125 16.1C10.6375 16.1 9.91875 15.9563 9.4875 15.525C9.05625 15.2375 8.625 14.8062 8.3375 14.375L6.9 15.9563C7.33125 16.5312 7.7625 16.9625 8.3375 17.3938C9.05625 17.825 9.91875 18.2563 10.7812 18.2563V20.125H12.3625V17.9688C13.225 17.825 13.9438 17.3937 14.5188 16.8188C15.2375 16.1 15.6687 14.95 15.6687 13.9437C15.6687 13.0812 15.3812 12.075 14.6625 11.5C13.9437 10.7812 13.225 10.35 12.3625 10.0625ZM11.5 0C5.175 0 0 5.175 0 11.5C0 17.825 5.175 23 11.5 23C17.825 23 23 17.825 23 11.5C23 5.175 17.825 0 11.5 0ZM11.5 21.4187C6.0375 21.4187 1.58125 16.9625 1.58125 11.5C1.58125 6.0375 6.0375 1.58125 11.5 1.58125C16.9625 1.58125 21.4187 6.0375 21.4187 11.5C21.4187 16.9625 16.9625 21.4187 11.5 21.4187Z" fill="#FFAC00"/>
</svg>
