<svg width="23" height="24" viewBox="0 0 23 24" fill="none" xmlns="http://www.w3.org/2000/svg">
<path d="M11.1228 0.0092418L11.5 5.48607e-08C12.9599 -0.000180614 14.3651 0.445882 15.4308 1.24771C16.4965 2.04954 17.1427 3.14709 17.2385 4.31775L17.25 4.62088V6.46922H19.55C20.465 6.46922 21.3425 6.76133 21.9895 7.28128C22.6365 7.80123 23 8.50643 23 9.24175V20.3319C23 21.0672 22.6365 21.7724 21.9895 22.2923C21.3425 22.8123 20.465 23.1044 19.55 23.1044H3.45C2.535 23.1044 1.65748 22.8123 1.01048 22.2923C0.363481 21.7724 0 21.0672 0 20.3319V9.24175C0 8.50643 0.363481 7.80123 1.01048 7.28128C1.65748 6.76133 2.535 6.46923 3.45 6.46922H5.75V4.62088C5.74977 3.44769 6.30483 2.31837 7.30259 1.46196C8.30035 0.605558 9.66609 0.0862025 11.1228 0.0092418ZM19.55 8.31758H3.45C3.145 8.31758 2.85249 8.41494 2.63683 8.58826C2.42116 8.76158 2.3 8.99664 2.3 9.24175V20.3319C2.3 20.577 2.42116 20.812 2.63683 20.9853C2.85249 21.1587 3.145 21.256 3.45 21.256H19.55C19.855 21.256 20.1475 21.1587 20.3632 20.9853C20.5788 20.812 20.7 20.577 20.7 20.3319V9.24175C20.7 8.99664 20.5788 8.76158 20.3632 8.58826C20.1475 8.41494 19.855 8.31758 19.55 8.31758ZM11.5 12.9384C12.11 12.9384 12.695 13.1332 13.1263 13.4798C13.5577 13.8265 13.8 14.2966 13.8 14.7868C13.8 15.277 13.5577 15.7471 13.1263 16.0938C12.695 16.4404 12.11 16.6352 11.5 16.6352C10.89 16.6352 10.305 16.4404 9.87365 16.0938C9.44232 15.7471 9.2 15.277 9.2 14.7868C9.2 14.2966 9.44232 13.8265 9.87365 13.4798C10.305 13.1332 10.89 12.9384 11.5 12.9384ZM11.8312 1.86129L11.5 1.84835C10.6424 1.84838 9.8155 2.10512 9.18064 2.5685C8.54577 3.03188 8.14843 3.66868 8.0661 4.35471L8.05 4.62088V6.46922H14.95V4.62088C14.95 3.93166 14.6305 3.26716 14.0539 2.75696C13.4773 2.24677 12.6849 1.92745 11.8312 1.86129Z" fill="#FFAC00"/>
</svg>
