<svg width="25" height="25" viewBox="0 0 25 25" fill="none" xmlns="http://www.w3.org/2000/svg">
<path d="M12.4993 12.4999C15.3758 12.4999 17.7077 10.1681 17.7077 7.29158C17.7077 4.4151 15.3758 2.08325 12.4993 2.08325C9.62287 2.08325 7.29102 4.4151 7.29102 7.29158C7.29102 10.1681 9.62287 12.4999 12.4993 12.4999Z" stroke="#FFAC00" stroke-width="2"/>
<path d="M17.7081 14.5833H18.0747C18.8363 14.5835 19.5715 14.8618 20.1424 15.3658C20.7132 15.8699 21.0803 16.5651 21.1747 17.3208L21.582 20.5749C21.6187 20.8681 21.5925 21.1657 21.5054 21.448C21.4182 21.7302 21.272 21.9908 21.0764 22.2122C20.8809 22.4337 20.6405 22.611 20.3711 22.7324C20.1018 22.8539 19.8098 22.9167 19.5143 22.9166H5.48515C5.18972 22.9167 4.89765 22.8539 4.62833 22.7324C4.35901 22.611 4.11859 22.4337 3.92305 22.2122C3.7275 21.9908 3.58129 21.7302 3.49412 21.448C3.40695 21.1657 3.38081 20.8681 3.41745 20.5749L3.8237 17.3208C3.91817 16.5647 4.28559 15.8693 4.85685 15.3651C5.42812 14.861 6.16388 14.583 6.92578 14.5833H7.2914" stroke="#FFAC00" stroke-width="2" stroke-linecap="round" stroke-linejoin="round"/>
</svg>
