<svg width="21" height="20" viewBox="0 0 21 20" fill="none" xmlns="http://www.w3.org/2000/svg">
<path d="M1.5517 0.106433L19.8137 8.84134C19.9981 8.92958 20.1537 9.06816 20.2626 9.24108C20.3716 9.414 20.4294 9.61421 20.4294 9.81858C20.4294 10.023 20.3716 10.2232 20.2626 10.3961C20.1537 10.569 19.9981 10.7076 19.8137 10.7958L1.5517 19.5307C1.36441 19.6205 1.15527 19.6545 0.949174 19.6288C0.743082 19.6031 0.548731 19.5187 0.389267 19.3856C0.229803 19.2525 0.111949 19.0764 0.0497402 18.8783C-0.0124682 18.6801 -0.0164085 18.4682 0.0383886 18.2679L1.86546 11.5698C1.88782 11.4877 1.93386 11.414 1.99782 11.3579C2.06178 11.3018 2.14085 11.2658 2.22515 11.2543L11.0745 10.0522C11.1114 10.047 11.1463 10.0324 11.1759 10.0098C11.2055 9.98714 11.2288 9.95726 11.2435 9.92302L11.2591 9.86842C11.2659 9.82003 11.2562 9.77075 11.2315 9.72858C11.2068 9.68641 11.1686 9.65384 11.123 9.63614L11.0753 9.62313L2.23468 8.42185C2.15054 8.41022 2.07166 8.37411 2.00786 8.31802C1.94407 8.26193 1.89816 8.18832 1.87586 8.10636L0.0383886 1.36926C-0.0164085 1.16893 -0.0124682 0.957065 0.0497402 0.758908C0.111949 0.560751 0.229803 0.384651 0.389267 0.251582C0.548731 0.118513 0.743082 0.0340831 0.949174 0.00834922C1.15527 -0.0173847 1.36441 0.0166617 1.5517 0.106433Z" fill="white"/>
</svg>
