<svg width="21" height="19" viewBox="0 0 21 19" fill="none" xmlns="http://www.w3.org/2000/svg">
<path d="M19.8002 6.69044L13.6662 5.8236L10.9242 0.418161C10.8493 0.270163 10.7261 0.150355 10.5739 0.0775313C10.1922 -0.105704 9.72831 0.0469921 9.53745 0.418161L6.79541 5.8236L0.661436 6.69044C0.492323 6.71393 0.337705 6.79145 0.219326 6.90891C0.0762122 7.05195 -0.00265002 7.24438 6.79978e-05 7.44392C0.00278602 7.64346 0.0868619 7.83379 0.233821 7.97309L4.67183 12.1804L3.62333 18.1215C3.59874 18.2597 3.61447 18.4018 3.66873 18.5318C3.72299 18.6617 3.81361 18.7743 3.93032 18.8567C4.04702 18.9391 4.18514 18.9881 4.32901 18.9981C4.47289 19.0081 4.61676 18.9787 4.74431 18.9132L10.2308 16.1083L15.7173 18.9132C15.8671 18.9907 16.0411 19.0165 16.2078 18.9883C16.6281 18.9179 16.9108 18.5303 16.8383 18.1215L15.7898 12.1804L20.2278 7.97309C20.3486 7.85798 20.4283 7.70763 20.4525 7.54319C20.5177 7.13208 20.223 6.75152 19.8002 6.69044Z" fill="white"/>
</svg>
