<svg width="98" height="104" viewBox="0 0 98 104" fill="none" xmlns="http://www.w3.org/2000/svg">
<circle r="32.2029" transform="matrix(-1 0 0 1 32.2029 32.2029)" fill="#FBAC18" fill-opacity="0.4"/>
<path d="M52.7179 16C52.7427 17.9137 52.7427 19.8513 52.7676 21.7649C52.7676 26.8361 52.7676 31.9073 52.7676 36.9786C52.7676 37.3134 52.7676 37.6483 52.7676 38.055C60.4388 38.055 68.0107 38.055 75.6322 38.055C75.657 38.3899 75.6819 38.6291 75.6819 38.8683C75.6819 42.3847 75.7067 45.901 75.657 49.3935C75.657 49.824 75.4336 50.3264 75.1357 50.6373C70.9649 54.7039 66.7445 58.7465 62.5738 62.7891C62.1517 63.1958 61.7049 63.3632 61.1091 63.3632C49.8381 63.3393 38.592 63.3632 27.321 63.3632C26.9486 63.3632 26.5514 63.3632 26.1045 63.3632C26.1045 65.253 26.1045 67.1188 26.1045 69.0803C36.0101 69.0803 45.8908 69.0803 55.9701 69.0803C55.6225 69.4391 55.4239 69.6544 55.2253 69.8458C53.0406 71.9508 50.856 74.0319 48.6961 76.1609C48.2741 76.5914 47.8272 76.7349 47.2314 76.7349C40.5532 76.711 33.875 76.7349 27.2217 76.7349C26.8741 76.7349 26.5266 76.7349 26.1045 76.7349C26.1045 78.6725 26.1045 80.5144 26.1045 82.452C31.3676 82.452 36.6307 82.452 41.8441 82.452C41.869 82.5716 41.8938 82.6673 41.869 82.6673C40.8263 83.4806 40.4787 84.6288 40.156 85.8009C39.2871 88.791 38.3437 91.7811 37.45 94.7473C37.301 95.2018 37.1521 95.465 36.5811 95.465C29.9029 95.441 23.2247 95.441 16.5714 95.441C16.4224 95.441 16.2983 95.4171 16.0748 95.3932C16.05 95.0822 16.0252 94.8191 16.0252 94.556C16.0252 68.554 16.0252 42.5521 16.0252 16.5741C16.0004 16.4067 16.0252 16.1914 16.0252 16C28.2395 16 40.4787 16 52.7179 16ZM65.6026 50.0393C52.42 50.0393 39.2623 50.0393 26.0549 50.0393C26.0549 51.9291 26.0549 53.7949 26.0549 55.6846C39.2623 55.6846 52.3952 55.6846 65.6026 55.6846C65.6026 53.7949 65.6026 51.953 65.6026 50.0393Z" fill="#5438FF"/>
<path d="M48.3232 84.7723C57.062 76.3522 65.7759 67.956 74.4401 59.6076C78.3378 63.3632 82.2603 67.1427 86.1331 70.8743C77.4689 79.2227 68.7053 87.6428 60.0162 96.039C56.1682 92.3313 52.2209 88.5279 48.3232 84.7723Z" fill="#5438FF"/>
<path d="M98.0001 59.4881C95.5672 61.8323 93.035 64.2722 90.602 66.6165C86.7292 62.8848 82.7819 59.0814 78.8594 55.3019C81.3171 52.9338 83.8246 50.5178 86.2575 48.1735C90.1552 51.9291 94.1025 55.7325 98.0001 59.4881Z" fill="#5438FF"/>
<path d="M58.75 32.2422C58.75 27.8169 58.75 23.4394 58.75 19.1815C63.2683 23.5112 67.8115 27.9126 72.305 32.2422C67.9356 32.2422 63.3676 32.2422 58.75 32.2422Z" fill="#5438FF"/>
<path d="M54.3806 99.2922C50.1353 100.488 45.7412 101.732 41.1235 103.024C42.4393 98.6225 43.7303 94.3885 44.9964 90.2502C48.1244 93.2642 51.2525 96.2782 54.3806 99.2922Z" fill="#5438FF"/>
</svg>
