<svg width="23" height="23" viewBox="0 0 23 23" fill="none" xmlns="http://www.w3.org/2000/svg">
<path d="M22.3454 9.52653C22.2553 9.07197 21.9734 8.67841 21.5721 8.44666L20.6822 7.93293C20.5791 7.87336 20.4565 7.85724 20.3414 7.88805C20.2263 7.91892 20.1282 7.99416 20.0686 8.09735L20.0114 8.1964L17.9849 7.02636C17.9847 7.02623 17.8288 6.93625 17.8288 6.93625C18.1092 5.86495 18.1176 4.73925 17.8487 3.65803C17.7141 3.1165 17.5124 2.59846 17.25 2.11393L18.5436 1.76731C18.7833 1.70312 18.9255 1.45677 18.8613 1.21711C18.797 0.977497 18.5509 0.835275 18.3111 0.899468L16.7428 1.31971C16.5096 1.00679 16.2479 0.713402 15.9595 0.443421C15.6391 0.143568 15.2217 -0.0133893 14.7826 0.000895827C14.3441 0.0153607 13.9375 0.199765 13.6376 0.520103C13.3378 0.840441 13.1806 1.25839 13.1951 1.69692C13.2014 1.88788 13.2399 2.07278 13.3079 2.24546C13.1062 2.33212 12.993 2.55551 13.0515 2.77379C13.1053 2.9745 13.2868 3.10688 13.4852 3.10688C13.5236 3.10688 13.5628 3.1019 13.6017 3.09148L13.8859 3.01533C14.4306 3.60583 14.737 4.36802 14.7589 5.16377L11.2706 3.14987C11.0558 3.02584 10.781 3.09943 10.6569 3.31429C10.5329 3.52915 10.6065 3.80389 10.8213 3.92792L11.336 4.22503C11.2526 4.30531 11.1799 4.39762 11.1204 4.50063L9.52917 7.25681C9.46906 7.36094 9.42612 7.47028 9.39876 7.58155L8.68989 7.17227C8.3329 6.96621 7.91701 6.91145 7.51887 7.0181C7.12068 7.12479 6.7879 7.38017 6.5818 7.73712C6.21649 8.36984 6.35202 9.1562 6.864 9.63529L6.2908 10.6282C5.65681 10.3776 4.91596 10.6225 4.56512 11.2302L1.3382 16.8192C0.987364 17.4269 1.14562 18.191 1.67961 18.6147L0.909604 19.9484C0.877305 20.0043 0.857449 20.0665 0.85143 20.1308L0.627 22.5086C0.610469 22.6836 0.697438 22.852 0.849633 22.9399C0.919352 22.9801 0.996887 23.0001 1.0742 23.0001C1.16566 23.0001 1.2568 22.9722 1.33438 22.9171L3.28143 21.5338C3.33408 21.4964 3.37802 21.4481 3.41031 21.3922L4.1805 20.0582C4.34658 20.1239 4.51984 20.156 4.69167 20.156C5.1757 20.156 5.64715 19.905 5.90604 19.4565L9.13287 13.8675C9.48371 13.2598 9.32545 12.4957 8.79142 12.072L9.34441 11.1142L9.81667 11.3869C10.231 11.6261 10.6837 11.7397 11.1309 11.7397C11.8998 11.7397 12.652 11.4034 13.1614 10.7915L17.3592 13.2151C17.3604 13.3447 17.3777 13.4751 17.4122 13.6036C17.519 14.0022 17.7746 14.3354 18.132 14.5417C18.3695 14.6788 18.6362 14.7487 18.9045 14.7487C19.0727 14.7487 19.2415 14.7213 19.4041 14.6657C19.8263 14.5214 20.1653 14.2019 20.3344 13.789C20.7688 12.7278 21.3435 11.7289 22.0427 10.8199C22.3252 10.4525 22.4355 9.9811 22.3454 9.52653ZM17.6244 12.3307L16.633 11.7583C16.7164 11.678 16.7891 11.5857 16.8486 11.4827L18.4399 8.72652C18.5 8.62239 18.5429 8.5131 18.5703 8.40183L19.5621 8.97444L17.6244 12.3307ZM16.3289 7.16104C16.3875 7.16104 16.4469 7.17595 16.5013 7.20731L17.5354 7.80432C17.7005 7.89991 17.7573 8.11203 17.6619 8.27735L16.0706 11.0335C16.0243 11.1137 15.9496 11.171 15.8602 11.1949C15.7708 11.2189 15.6775 11.2066 15.5973 11.1603L14.5637 10.5636C14.4836 10.5173 14.4263 10.4426 14.4023 10.3532C14.3784 10.2639 14.3907 10.1705 14.437 10.0903L16.0282 7.33417C16.0923 7.22317 16.209 7.16104 16.3289 7.16104ZM14.2934 1.13414C14.4293 0.989042 14.6135 0.905488 14.8122 0.898929C15.0105 0.892011 15.2002 0.963572 15.3454 1.09942C16.8085 2.46899 17.435 4.52583 17.0178 6.46807L15.6385 5.6717C15.7668 4.36968 15.2894 3.08586 14.3282 2.18608C14.183 2.05023 14.0995 1.86601 14.0929 1.66732C14.0864 1.46863 14.1576 1.27924 14.2934 1.13414ZM10.3072 7.70603L11.8984 4.94985C11.9625 4.83885 12.0792 4.77672 12.199 4.77672C12.2578 4.77672 12.3172 4.79168 12.3716 4.82308L13.4053 5.41987C13.5707 5.51542 13.6275 5.72767 13.532 5.89307L11.9407 8.64926C11.8944 8.7294 11.8198 8.78672 11.7304 8.81066C11.641 8.83469 11.5476 8.82229 11.4675 8.77602L10.4339 8.17928C10.3538 8.13301 10.2965 8.05831 10.2725 7.96891C10.2486 7.87952 10.2609 7.78617 10.3072 7.70603ZM12.7188 9.09843L14.3102 6.34225C14.3703 6.23812 14.4132 6.12882 14.4406 6.01755L15.4662 6.60971C15.3835 6.68904 15.3103 6.78091 15.2502 6.88504L13.6589 9.64122C13.5994 9.74423 13.5559 9.85334 13.528 9.96569L12.5033 9.37407C12.5866 9.2937 12.6594 9.20139 12.7188 9.09843ZM6.26982 17.0295L3.25812 15.2907L4.20125 13.6571L7.21295 15.396L6.26982 17.0295ZM2.68123 20.8581L1.61362 21.6165L1.73666 20.3127L2.45002 19.0772L3.39459 19.6225L2.68123 20.8581ZM5.12799 19.0072C4.98986 19.2465 4.68277 19.3288 4.44347 19.1906L2.29971 17.9529C2.06041 17.8148 1.97812 17.5077 2.1163 17.2684L2.8089 16.0687L5.8206 17.8075L5.12799 19.0072ZM8.35478 13.4183L7.66217 14.6179L4.65047 12.8791L5.34308 11.6794C5.4358 11.5188 5.60457 11.429 5.77788 11.429C5.86282 11.429 5.94889 11.4506 6.0276 11.496L8.17136 12.7337C8.41061 12.8719 8.49291 13.179 8.35478 13.4183ZM8.02096 11.6094L7.07639 11.0641L7.62174 10.1195L8.56631 10.6649L8.02096 11.6094ZM10.2659 10.6087L7.59582 9.06716C7.28793 8.88936 7.18205 8.49428 7.3598 8.18638C7.44592 8.03724 7.58495 7.93055 7.75134 7.88594C7.91778 7.84129 8.09149 7.86425 8.24063 7.95036L12.3656 10.3319C11.8228 10.875 10.9617 11.0104 10.2659 10.6087ZM21.3305 10.2721C20.5825 11.2445 19.9676 12.3132 19.5029 13.4485C19.4311 13.6238 19.2928 13.7541 19.1136 13.8154C18.9343 13.8767 18.7453 13.8583 18.5812 13.7635C18.4316 13.6772 18.3246 13.5377 18.2799 13.3709C18.2353 13.2041 18.2582 13.0299 18.3445 12.8803L20.622 8.93559L21.1227 9.2247C21.3024 9.32847 21.4237 9.49774 21.4641 9.70128C21.5044 9.90487 21.457 10.1076 21.3305 10.2721Z" fill="#FFAC00"/>
</svg>
