<svg width="32" height="32" viewBox="0 0 32 32" fill="none" xmlns="http://www.w3.org/2000/svg">
<g clip-path="url(#clip0)">
<path d="M-6.99382e-07 16C-5.13895e-07 20.2435 1.68571 24.3131 4.68629 27.3137C7.68687 30.3143 11.7565 32 16 32C20.2435 32 24.3131 30.3143 27.3137 27.3137C30.3143 24.3131 32 20.2435 32 16C32 11.7565 30.3143 7.68687 27.3137 4.68629C24.3131 1.68571 20.2435 1.02248e-06 16 1.20797e-06C11.7565 1.39345e-06 7.68687 1.68571 4.68629 4.68629C1.68571 7.68687 -8.8487e-07 11.7565 -6.99382e-07 16H-6.99382e-07ZM15 9C15 8.73478 15.1054 8.48043 15.2929 8.29289C15.4804 8.10536 15.7348 8 16 8C16.2652 8 16.5196 8.10536 16.7071 8.29289C16.8946 8.48043 17 8.73478 17 9L17 20.586L21.292 16.292C21.385 16.199 21.4954 16.1253 21.6168 16.075C21.7383 16.0246 21.8685 15.9987 22 15.9987C22.1315 15.9987 22.2617 16.0246 22.3832 16.075C22.5046 16.1253 22.615 16.199 22.708 16.292C22.801 16.385 22.8747 16.4954 22.925 16.6168C22.9754 16.7383 23.0013 16.8685 23.0013 17C23.0013 17.1315 22.9754 17.2617 22.925 17.3832C22.8747 17.5046 22.801 17.615 22.708 17.708L16.708 23.708C16.6151 23.8011 16.5048 23.875 16.3833 23.9254C16.2618 23.9758 16.1315 24.0018 16 24.0018C15.8685 24.0018 15.7382 23.9758 15.6167 23.9254C15.4952 23.875 15.3849 23.8011 15.292 23.708L9.292 17.708C9.10423 17.5202 8.99874 17.2656 8.99874 17C8.99874 16.7344 9.10423 16.4798 9.292 16.292C9.47977 16.1042 9.73445 15.9987 10 15.9987C10.2656 15.9987 10.5202 16.1042 10.708 16.292L15 20.586L15 9Z" fill="#5438FF"/>
</g>
<defs>
<clipPath id="clip0">
<rect width="32" height="32" fill="white" transform="translate(0 32) rotate(-90)"/>
</clipPath>
</defs>
</svg>
