<svg width="40" height="40" viewBox="0 0 40 40" fill="none" xmlns="http://www.w3.org/2000/svg">
<path d="M12.9543 4.06338L14.7476 3.49005C16.4309 2.95338 18.2259 3.82171 18.9476 5.51838L20.3793 8.89838C21.0026 10.37 20.6576 12.1017 19.5226 13.1784L16.3659 16.175C16.5593 17.9684 17.1626 19.7334 18.1726 21.4701C19.1323 23.1504 20.4193 24.6211 21.9576 25.795L25.7493 24.5284C27.1876 24.0501 28.7526 24.6017 29.6326 25.8967L31.6876 28.9134C32.7126 30.4201 32.5293 32.4967 31.2576 33.7734L29.8943 35.1417C28.5376 36.5034 26.5993 36.9984 24.8076 36.4384C20.5759 35.1184 16.6859 31.2001 13.136 24.6834C9.58095 18.1567 8.32595 12.6167 9.37262 8.07005C9.81262 6.15671 11.1743 4.63171 12.9543 4.06338Z" fill="white"/>
</svg>
