<svg width="46" height="46" viewBox="0 0 46 46" fill="none" xmlns="http://www.w3.org/2000/svg">
<path d="M8.90103 9.2002H39.376C42.251 9.2002 43.7 10.5572 43.7 13.3172V32.6832C43.7 35.4202 42.251 36.8002 39.376 36.8002H8.90103C6.02603 36.8002 4.57703 35.4202 4.57703 32.6832V13.3172C4.57703 10.5572 6.02603 9.2002 8.90103 9.2002ZM24.127 28.9802L39.629 16.2612C40.181 15.8012 40.618 14.7432 39.928 13.8002C39.261 12.8572 38.042 12.8342 37.237 13.4092L24.127 22.2872L11.04 13.4092C10.235 12.8342 9.01603 12.8572 8.34903 13.8002C7.65903 14.7432 8.09603 15.8012 8.64803 16.2612L24.127 28.9802Z" fill="white"/>
</svg>
