<svg width="51" height="51" viewBox="0 0 51 51" fill="none" xmlns="http://www.w3.org/2000/svg">
<path d="M6.375 0C4.68424 0 3.06274 0.67165 1.86719 1.86719C0.67165 3.06274 0 4.68424 0 6.375V44.625C0 46.3158 0.67165 47.9373 1.86719 49.1328C3.06274 50.3283 4.68424 51 6.375 51H44.625C46.3158 51 47.9373 50.3283 49.1328 49.1328C50.3283 47.9373 51 46.3158 51 44.625V6.375C51 4.68424 50.3283 3.06274 49.1328 1.86719C47.9373 0.67165 46.3158 0 44.625 0H6.375ZM22.0433 16.3767L16.3767 22.0433C15.9782 22.4413 15.4381 22.6648 14.875 22.6648C14.3119 22.6648 13.7718 22.4413 13.3733 22.0433L10.54 19.21C10.1646 18.8072 9.96029 18.2744 9.97 17.7239C9.97972 17.1733 10.2027 16.6481 10.5921 16.2587C10.9814 15.8694 11.5067 15.6464 12.0572 15.6367C12.6077 15.627 13.1405 15.8313 13.5433 16.2067L14.875 17.5383L19.04 13.3733C19.2345 13.1646 19.4691 12.9971 19.7298 12.881C19.9905 12.7648 20.2719 12.7024 20.5572 12.6973C20.8425 12.6923 21.1259 12.7448 21.3905 12.8517C21.6551 12.9585 21.8955 13.1176 22.0973 13.3194C22.2991 13.5212 22.4581 13.7615 22.565 14.0261C22.6719 14.2907 22.7244 14.5742 22.7193 14.8595C22.7143 15.1448 22.6519 15.4262 22.5357 15.6869C22.4196 15.9475 22.2521 16.1821 22.0433 16.3767ZM38.9583 15.5833C39.5219 15.5833 40.0624 15.8072 40.4609 16.2057C40.8595 16.6042 41.0833 17.1447 41.0833 17.7083C41.0833 18.2719 40.8595 18.8124 40.4609 19.2109C40.0624 19.6094 39.5219 19.8333 38.9583 19.8333H29.0417C28.4781 19.8333 27.9376 19.6094 27.5391 19.2109C27.1406 18.8124 26.9167 18.2719 26.9167 17.7083C26.9167 17.1447 27.1406 16.6042 27.5391 16.2057C27.9376 15.8072 28.4781 15.5833 29.0417 15.5833H38.9583ZM26.9167 33.2917C26.9167 32.7281 27.1406 32.1876 27.5391 31.7891C27.9376 31.3906 28.4781 31.1667 29.0417 31.1667H38.9583C39.5219 31.1667 40.0624 31.3906 40.4609 31.7891C40.8595 32.1876 41.0833 32.7281 41.0833 33.2917C41.0833 33.8553 40.8595 34.3958 40.4609 34.7943C40.0624 35.1928 39.5219 35.4167 38.9583 35.4167H29.0417C28.4781 35.4167 27.9376 35.1928 27.5391 34.7943C27.1406 34.3958 26.9167 33.8553 26.9167 33.2917ZM22.0433 28.9567C22.4413 29.3551 22.6648 29.8952 22.6648 30.4583C22.6648 31.0215 22.4413 31.5616 22.0433 31.96L16.3767 37.6267C15.9782 38.0246 15.4381 38.2481 14.875 38.2481C14.3119 38.2481 13.7718 38.0246 13.3733 37.6267L10.54 34.7933C10.3312 34.5988 10.1638 34.3642 10.0476 34.1035C9.93148 33.8429 9.86903 33.5615 9.86399 33.2761C9.85896 32.9908 9.91144 32.7074 10.0183 32.4428C10.1252 32.1782 10.2843 31.9378 10.4861 31.7361C10.6878 31.5343 10.9282 31.3752 11.1928 31.2683C11.4574 31.1614 11.7408 31.109 12.0261 31.114C12.3115 31.119 12.5929 31.1815 12.8535 31.2976C13.1142 31.4138 13.3488 31.5812 13.5433 31.79L14.875 33.1217L19.04 28.9567C19.4384 28.5587 19.9785 28.3352 20.5417 28.3352C21.1048 28.3352 21.6449 28.5587 22.0433 28.9567Z" fill="#5438FF"/>
</svg>
