<svg width="56" height="56" viewBox="0 0 56 56" fill="none" xmlns="http://www.w3.org/2000/svg">
<g clip-path="url(#clip0)">
<path d="M28 56C35.4261 56 42.548 53.05 47.799 47.799C53.05 42.548 56 35.4261 56 28C56 20.5739 53.05 13.452 47.799 8.20101C42.548 2.94999 35.4261 -1.79863e-06 28 -2.44784e-06C20.5739 -3.09704e-06 13.452 2.94999 8.20101 8.201C2.94999 13.452 3.09704e-06 20.5739 2.44784e-06 28C1.79863e-06 35.4261 2.94999 42.548 8.20101 47.799C13.452 53.05 20.5739 56 28 56V56ZM15.75 29.75C15.2859 29.75 14.8408 29.5656 14.5126 29.2374C14.1844 28.9092 14 28.4641 14 28C14 27.5359 14.1844 27.0907 14.5126 26.7626C14.8408 26.4344 15.2859 26.25 15.75 26.25L36.0255 26.25L28.511 18.739C28.3483 18.5763 28.2192 18.3831 28.1312 18.1705C28.0431 17.958 27.9978 17.7301 27.9978 17.5C27.9978 17.2699 28.0431 17.042 28.1312 16.8295C28.2192 16.6169 28.3483 16.4237 28.511 16.261C28.6737 16.0983 28.8669 15.9692 29.0795 15.8812C29.292 15.7931 29.5199 15.7478 29.75 15.7478C29.9801 15.7478 30.208 15.7931 30.4205 15.8812C30.6331 15.9692 30.8263 16.0983 30.989 16.261L41.489 26.761C41.652 26.9236 41.7813 27.1167 41.8695 27.3293C41.9577 27.5419 42.0031 27.7698 42.0031 28C42.0031 28.2302 41.9577 28.4581 41.8695 28.6707C41.7813 28.8833 41.652 29.0764 41.489 29.239L30.989 39.739C30.6604 40.0676 30.2147 40.2522 29.75 40.2522C29.2853 40.2522 28.8396 40.0676 28.511 39.739C28.1824 39.4104 27.9978 38.9647 27.9978 38.5C27.9978 38.0353 28.1824 37.5896 28.511 37.261L36.0255 29.75L15.75 29.75Z" fill="#5438FF"/>
</g>
<defs>
<clipPath id="clip0">
<rect width="56" height="56" fill="white" transform="translate(56 56) rotate(-180)"/>
</clipPath>
</defs>
</svg>
