<svg width="31" height="31" viewBox="0 0 31 31" fill="none" xmlns="http://www.w3.org/2000/svg">
<g clip-path="url(#clip0)">
<path d="M5.16602 11.6629C5.16602 11.3227 5.3021 10.9964 5.54434 10.7558C5.78657 10.5153 6.11511 10.3801 6.45768 10.3801H11.6243C11.9669 10.3801 12.2955 10.5153 12.5377 10.7558C12.7799 10.9964 12.916 11.3227 12.916 11.6629C12.916 12.0031 12.7799 12.3294 12.5377 12.5699C12.2955 12.8105 11.9669 12.9456 11.6243 12.9456H6.45768C6.11511 12.9456 5.78657 12.8105 5.54434 12.5699C5.3021 12.3294 5.16602 12.0031 5.16602 11.6629Z" fill="#FFAC00"/>
<path fill-rule="evenodd" clip-rule="evenodd" d="M5.16667 3.96631C3.79638 3.96631 2.48222 4.50689 1.51328 5.46914C0.544344 6.43139 0 7.73648 0 9.09731L0 21.9248C0 23.2856 0.544344 24.5907 1.51328 25.553C2.48222 26.5152 3.79638 27.0558 5.16667 27.0558H25.8333C27.2036 27.0558 28.5178 26.5152 29.4867 25.553C30.4557 24.5907 31 23.2856 31 21.9248V9.09731C31 7.73648 30.4557 6.43139 29.4867 5.46914C28.5178 4.50689 27.2036 3.96631 25.8333 3.96631H5.16667ZM25.8333 6.53181H5.16667C4.48152 6.53181 3.82444 6.8021 3.33997 7.28323C2.8555 7.76435 2.58333 8.4169 2.58333 9.09731V18.0766H28.4167V9.09731C28.4167 8.4169 28.1445 7.76435 27.66 7.28323C27.1756 6.8021 26.5185 6.53181 25.8333 6.53181ZM28.4167 20.6421H2.58333V21.9248C2.58333 22.6052 2.8555 23.2578 3.33997 23.7389C3.82444 24.22 4.48152 24.4903 5.16667 24.4903H25.8333C26.5185 24.4903 27.1756 24.22 27.66 23.7389C28.1445 23.2578 28.4167 22.6052 28.4167 21.9248V20.6421Z" fill="#FFAC00"/>
</g>
<defs>
<clipPath id="clip0">
<rect width="31" height="30.786" fill="white" transform="translate(0 0.118164)"/>
</clipPath>
</defs>
</svg>
