<svg width="28" height="28" viewBox="0 0 28 28" fill="none" xmlns="http://www.w3.org/2000/svg">
<path d="M17.1941 9.30069L6.64972 19.845L5.96022 22.197L8.26439 21.5309L18.8437 10.9515L17.1941 9.30069ZM18.9931 7.50169L20.6427 9.15136L22.1804 7.61369C22.2897 7.5043 22.3512 7.35595 22.3512 7.20127C22.3512 7.04659 22.2897 6.89825 22.1804 6.78886L21.3544 5.96402C21.245 5.85466 21.0967 5.79323 20.942 5.79323C20.7873 5.79323 20.6389 5.85466 20.5296 5.96402L18.9942 7.50169H18.9931ZM23.0052 4.31436L23.8301 5.13919C24.3768 5.68615 24.684 6.42788 24.684 7.20127C24.684 7.97467 24.3768 8.7164 23.8301 9.26336L9.48939 23.6052L4.56605 25.0285C4.36537 25.0864 4.15284 25.0893 3.95064 25.037C3.74844 24.9847 3.56399 24.8791 3.41655 24.7311C3.26911 24.5832 3.16407 24.3984 3.11242 24.1961C3.06076 23.9937 3.06438 23.7812 3.12289 23.5807L4.57889 18.6165L18.8822 4.31319C19.4292 3.7664 20.1709 3.45923 20.9443 3.45923C21.7177 3.45923 22.4594 3.7664 23.0064 4.31319L23.0052 4.31436Z" fill="#FFAC00"/>
</svg>
