<svg width="27" height="28" viewBox="0 0 27 28" fill="none" xmlns="http://www.w3.org/2000/svg">
<path d="M26.4279 10.8076H18.6779C18.5447 10.8076 18.4357 10.9166 18.4357 11.0498V12.5029C18.4357 12.6361 18.5447 12.7451 18.6779 12.7451H26.4279C26.5611 12.7451 26.6701 12.6361 26.6701 12.5029V11.0498C26.6701 10.9166 26.5611 10.8076 26.4279 10.8076ZM22.3713 14.9248H18.6779C18.5447 14.9248 18.4357 15.0338 18.4357 15.167V16.6201C18.4357 16.7533 18.5447 16.8623 18.6779 16.8623H22.3713C22.5045 16.8623 22.6135 16.7533 22.6135 16.6201V15.167C22.6135 15.0338 22.5045 14.9248 22.3713 14.9248ZM12.269 8.09814H10.9582C10.7705 8.09814 10.6191 8.24951 10.6191 8.43721V15.945C10.6191 16.054 10.6706 16.1539 10.7584 16.2175L15.2661 19.5052C15.4175 19.6142 15.6294 19.5839 15.7384 19.4325L16.5164 18.3699V18.3669C16.6254 18.2155 16.5921 18.0036 16.4407 17.8946L12.6051 15.1216V8.43721C12.6081 8.24951 12.4537 8.09814 12.269 8.09814Z" fill="#FFAC00"/>
<path d="M22.1844 18.7361H20.4346C20.2651 18.7361 20.1046 18.8239 20.0138 18.9692C19.6293 19.5777 19.1813 20.1408 18.6666 20.6554C17.7796 21.5424 16.7473 22.2387 15.5999 22.7231C14.4102 23.2256 13.1478 23.4799 11.846 23.4799C10.5412 23.4799 9.27883 23.2256 8.09211 22.7231C6.94475 22.2387 5.91242 21.5424 5.02541 20.6554C4.1384 19.7684 3.44211 18.7361 2.95774 17.5887C2.4552 16.402 2.2009 15.1396 2.2009 13.8348C2.2009 12.53 2.4552 11.2707 2.95774 10.0809C3.44211 8.93354 4.1384 7.90122 5.02541 7.01421C5.91242 6.12719 6.94475 5.4309 8.09211 4.94653C9.27883 4.44399 10.5443 4.18969 11.846 4.18969C13.1508 4.18969 14.4132 4.44399 15.5999 4.94653C16.7473 5.4309 17.7796 6.12719 18.6666 7.01421C19.1813 7.52885 19.6293 8.09194 20.0138 8.70044C20.1046 8.84575 20.2651 8.93354 20.4346 8.93354H22.1844C22.3933 8.93354 22.5265 8.71557 22.4326 8.5309C20.4588 4.60444 16.4567 2.05239 11.9883 2.00092C5.44621 1.91919 0.0121301 7.27456 2.06822e-05 13.8106C-0.0120887 20.3587 5.29485 25.6717 11.843 25.6717C16.3689 25.6717 20.4376 23.1106 22.4326 19.1387C22.5265 18.9541 22.3903 18.7361 22.1844 18.7361Z" fill="#FFAC00"/>
</svg>
