<svg width="72" height="70" viewBox="0 0 72 70" fill="none" xmlns="http://www.w3.org/2000/svg">
<path d="M1.42086 28.4363L16.5056 43.9117L12.3051 65.1108C12.1896 65.6908 12.2693 66.2931 12.5317 66.8231C13.1884 68.1541 14.8051 68.7032 16.1428 68.0516L35.5201 58.4826L54.386 69.0238C54.9052 69.3156 55.5022 69.4229 56.0859 69.3396C56.7939 69.236 57.4319 68.8556 57.8595 68.282C58.2872 67.7083 58.4696 66.9883 58.3667 66.2802L55.2609 44.8942L71.1196 30.2093C71.489 29.8681 71.7555 29.4303 71.8887 28.9453C72.022 28.4604 72.0167 27.9479 71.8735 27.4658C71.7303 26.9837 71.4549 26.5514 71.0785 26.2179C70.702 25.8844 70.2397 25.6631 69.7439 25.5789L48.4431 21.9266L39.3769 2.3085C39.1315 1.77022 38.7064 1.32779 38.1836 1.0545C36.8666 0.363604 35.239 0.867329 34.5481 2.18437L24.4927 21.3164L3.03484 23.879C2.4495 23.9504 1.90097 24.2093 1.47548 24.626C0.398369 25.6577 0.384046 27.3659 1.42086 28.4363ZM28.3697 26.9616L36.7306 11.0517L44.2778 27.3622L61.9948 30.4012L48.8067 42.612L51.3888 60.4024L35.6955 51.6343L19.583 59.5878L23.0726 41.9614L10.5251 29.0882L28.3697 26.9616Z" fill="#FBAC18"/>
</svg>
